<?xml version="1.0" encoding="utf-8"?>
<!-- Generator: Adobe Illustrator 27.8.1, SVG Export Plug-In . SVG Version: 6.00 Build 0)  -->
<svg version="1.1" xmlns="http://www.w3.org/2000/svg" xmlns:xlink="http://www.w3.org/1999/xlink" x="0px" y="0px"
	 viewBox="0 0 512 512" style="enable-background:new 0 0 512 512;" xml:space="preserve">
<style type="text/css">
	.st0{display:none;}
	.st1{display:inline;fill:#49B1F7;}
	.st2{display:inline;}
	.st3{clip-path:url(#SVGID_00000031912001769434538990000012160087537676611758_);}
	.st4{fill:#E3E8F6;}
	.st5{fill:#F3A845;}
	.st6{fill:#EECC61;}
	.st7{fill:#FCE79C;}
	.st8{fill:#D24034;}
	.st9{fill:#AA2B24;}
	.st10{clip-path:url(#SVGID_00000013190383107298969940000007275718056701260705_);fill:#AA2B24;}
	.st11{display:inline;fill:#DEEEFF;}
	.st12{display:inline;fill:#D3DCFB;}
	.st13{display:inline;fill:#FF4155;}
	.st14{display:inline;fill:#E80054;}
	.st15{display:inline;fill:#3C58A0;}
	.st16{display:inline;fill:#2A428C;}
	.st17{fill:#6289CC;}
	.st18{fill:#4B6BB2;}
	.st19{fill:#BEC8F7;}
	.st20{fill:#FF7186;}
	.st21{fill:#F9A0B1;}
	.st22{display:inline;fill:#FF7186;}
	.st23{fill:#E80054;}
	.st24{fill:#49B1F7;}
	.st25{fill:#F8F6F6;}
	.st26{fill:#E8B800;}
	.st27{fill:#D7AA02;}
	.st28{fill:#FAC600;}
	.st29{fill:#FFFFFF;}
	.st30{fill:#9C9C9C;}
	.st31{fill:#838383;}
	.st32{fill:#D8ECFE;}
	.st33{fill:#B3DAFE;}
	.st34{fill:#FE646F;}
	.st35{fill:#FD4755;}
	.st36{fill:#0182FC;}
	.st37{fill:#CECECE;}
	.st38{fill:#EBEBEB;}
	.st39{fill:#FE9901;}
	.st40{fill:#FB8801;}
	.st41{fill:#60B7FF;}
	.st42{fill:#26A6FE;}
	.st43{fill:#22B27F;}
	.st44{fill:#09A76D;}
	.st45{display:none;fill:#49B1F7;}
	.st46{clip-path:url(#SVGID_00000014622725697450212040000015722936169560606907_);}
	.st47{fill:#FB6572;}
	.st48{fill:#F2FBFF;}
	.st49{fill:#FB4A59;}
	.st50{fill:#C8EFFE;}
	.st51{fill:#DFF6FD;}
	.st52{fill:#FEE45A;}
	.st53{fill:#F7CF52;}
	.st54{fill:#EB4156;}
</style>
<g id="Layer_3" class="st0">
	<circle class="st1" cx="256" cy="256" r="245"/>
	<g class="st2">
		<g>
			<defs>
				<path id="SVGID_1_" d="M512,0v376c0,0-77.1,49.4-96.8,66.3C372.4,478.9,316.8,501,256,501c-59.2,0-113.5-21-155.8-55.9
					C78.7,427.3,0,380.6,0,380.6V0h251.8H512z"/>
			</defs>
			<clipPath id="SVGID_00000099657922863625201210000006578024515693235588_">
				<use xlink:href="#SVGID_1_"  style="overflow:visible;"/>
			</clipPath>
			<g style="clip-path:url(#SVGID_00000099657922863625201210000006578024515693235588_);">
				<path class="st4" d="M104,164v288c0,17.7,14.3,32,32,32h240c17.7,0,32-14.3,32-32V164H104z"/>
				<path class="st5" d="M104,228h304v224c0,17.7-14.3,32-32,32H136c-17.7,0-32-14.3-32-32V228z"/>
				<path class="st6" d="M408,452V228H105.6C120,372,230.2,484,364,484c1.6,0,6.4,0,12.6-0.1C394,483.6,408,469.4,408,452z"/>
				<path class="st6" d="M104,276h176v160H104V276z"/>
				<path class="st7" d="M220.4,436H280V276H114.3C130.3,339.9,167.8,396.3,220.4,436z"/>
				<path class="st8" d="M88,68h336v96H88V68z"/>
				<path class="st9" d="M136,68L136,68c4.4,0,8,3.6,8,8v80c0,4.4-3.6,8-8,8l0,0c-4.4,0-8-3.6-8-8V76C128,71.6,131.6,68,136,68z"/>
				<path class="st9" d="M184,68L184,68c4.4,0,8,3.6,8,8v80c0,4.4-3.6,8-8,8l0,0c-4.4,0-8-3.6-8-8V76C176,71.6,179.6,68,184,68z"/>
				<path class="st9" d="M232,68L232,68c4.4,0,8,3.6,8,8v80c0,4.4-3.6,8-8,8l0,0c-4.4,0-8-3.6-8-8V76C224,71.6,227.6,68,232,68z"/>
				<path class="st9" d="M280,68L280,68c4.4,0,8,3.6,8,8v80c0,4.4-3.6,8-8,8l0,0c-4.4,0-8-3.6-8-8V76C272,71.6,275.6,68,280,68z"/>
				<path class="st9" d="M328,68L328,68c4.4,0,8,3.6,8,8v80c0,4.4-3.6,8-8,8l0,0c-4.4,0-8-3.6-8-8V76C320,71.6,323.6,68,328,68z"/>
				<path class="st9" d="M376,68L376,68c4.4,0,8,3.6,8,8v80c0,4.4-3.6,8-8,8l0,0c-4.4,0-8-3.6-8-8V76C368,71.6,371.6,68,376,68z"/>
				<path class="st4" d="M136,484v8c0,13.3,10.7,24,24,24h192c13.3,0,24-10.7,24-24v-8H136z"/>
				<g>
					<path class="st5" d="M128,348h128v16H128V348z"/>
					<path class="st5" d="M128,316h128v16H128V316z"/>
					<path class="st5" d="M128,380h96v16h-96V380z"/>
					<path class="st5" d="M240,380h16v16h-16V380z"/>
					<path class="st5" d="M336,260h16v16h-16V260z"/>
					<path class="st5" d="M304,340h16v16h-16V340z"/>
					<path class="st5" d="M368,396h16v16h-16V396z"/>
					<path class="st5" d="M304,436h16v16h-16V436z"/>
				</g>
			</g>
		</g>
		<g>
			<defs>
				<path id="SVGID_00000148645731999620535060000000053853163300887995_" d="M512,0v376c0,0-77.1,49.4-96.8,66.3
					C372.4,478.9,316.8,501,256,501c-59.2,0-113.5-21-155.8-55.9C78.7,427.3,0,380.6,0,380.6V0h251.8H512z"/>
			</defs>
			<clipPath id="SVGID_00000107557641800690861840000015890376787125860993_">
				<use xlink:href="#SVGID_00000148645731999620535060000000053853163300887995_"  style="overflow:visible;"/>
			</clipPath>
			<path style="clip-path:url(#SVGID_00000107557641800690861840000015890376787125860993_);fill:#AA2B24;" d="M376,36H136l-32,32
				h304L376,36z"/>
		</g>
	</g>
</g>
<g id="Layer_2" class="st0">
	<g>
		<path class="st1" d="M140.7,472.5c34.4,18.4,73.6,28.8,115.3,28.8c43.7,0,84.8-11.5,120.3-31.5l91.4-90
			c21.2-36.2,33.3-78.4,33.3-123.4c0-135.3-109.7-245-245-245S11,121,11,256.3C11,309.6,28,359,57,399.2L140.7,472.5z"/>
		<path class="st11" d="M50.4,130h94v134.6h-94V130z"/>
		<path class="st12" d="M50.4,264.6h33.2V188c0-13,10.7-23.7,23.7-23.7h37.1V130h-94V264.6z"/>
		<path class="st13" d="M50.4,389.5c22.6,34.7,53.7,63.4,90.3,83c2.4-5.6,3.7-11.8,3.7-18.2V262.5h-94V389.5z"/>
		<path class="st14" d="M50.4,262.5v127.1c9.6,14.8,20.8,28.5,33.2,40.8c0-0.5,0-0.9,0-1.4V262.5H50.4z"/>
		<path class="st14" d="M140.7,472.5c2.4-5.6,3.7-11.8,3.7-18.2v-1.7h-35C119.3,460,129.8,466.7,140.7,472.5z"/>
		<path class="st15" d="M153.4,51.1h-72c0,0-9.9,6.4,0,16.3v47.3c0,0-9.1,7.2,0,16.3h72c6,0,10.8-4.8,10.8-10.8V61.9
			C164.2,55.9,159.3,51.1,153.4,51.1L153.4,51.1z"/>
		<path class="st16" d="M83.6,51.1H41.4c-6,0-10.8,4.8-10.8,10.8v58.2c0,6,4.8,10.8,10.8,10.8h42.2c-9.1-9.1,0-16.3,0-16.3V67.4
			C73.6,57.4,83.6,51.1,83.6,51.1L83.6,51.1z"/>
		<g class="st2">
			<path class="st17" d="M111.2,114.6c-4.1,0-7.5-3.3-7.5-7.5V74.8c0-4.1,3.3-7.5,7.5-7.5s7.5,3.3,7.5,7.5v32.3
				C118.7,111.3,115.3,114.6,111.2,114.6z"/>
		</g>
		<g class="st2">
			<path class="st17" d="M138.9,114.6c-4.1,0-7.5-3.3-7.5-7.5V74.8c0-4.1,3.4-7.5,7.5-7.5s7.5,3.3,7.5,7.5v32.3
				C146.3,111.3,143,114.6,138.9,114.6z"/>
		</g>
		<g class="st2">
			<path class="st18" d="M83.6,114.6c-4.1,0-7.5-3.3-7.5-7.5V74.8c0-4.1,3.3-7.5,7.5-7.5s7.5,3.3,7.5,7.5v32.3
				C91,111.3,87.7,114.6,83.6,114.6z"/>
		</g>
		<g class="st2">
			<path class="st18" d="M55.9,114.6c-4.1,0-7.5-3.3-7.5-7.5V74.8c0-4.1,3.3-7.5,7.5-7.5s7.5,3.3,7.5,7.5v32.3
				C63.4,111.3,60,114.6,55.9,114.6z"/>
		</g>
		<g class="st2">
			<path class="st19" d="M68.3,171.7H51.4c-4.1,0-7.5-3.4-7.5-7.5s3.3-7.5,7.5-7.5h16.8c4.1,0,7.5,3.4,7.5,7.5
				C75.8,168.4,72.4,171.7,68.3,171.7z"/>
		</g>
		<g class="st2">
			<path class="st19" d="M56.5,204.5h-5.1c-4.1,0-7.5-3.4-7.5-7.5s3.3-7.5,7.5-7.5h5.1c4.1,0,7.5,3.4,7.5,7.5
				C64,201.1,60.7,204.5,56.5,204.5z"/>
		</g>
		<g class="st2">
			<path class="st19" d="M56.5,237.2h-5.1c-4.1,0-7.5-3.4-7.5-7.5s3.3-7.5,7.5-7.5h5.1c4.1,0,7.5,3.4,7.5,7.5S60.7,237.2,56.5,237.2
				z"/>
		</g>
		<g class="st2">
			<path class="st20" d="M56.5,302.7h-5.1c-4.1,0-7.5-3.4-7.5-7.5s3.3-7.5,7.5-7.5h5.1c4.1,0,7.5,3.4,7.5,7.5
				C64,299.3,60.7,302.7,56.5,302.7z"/>
		</g>
		<g class="st2">
			<path class="st20" d="M56.5,335.4h-5.1c-4.1,0-7.5-3.4-7.5-7.5s3.3-7.5,7.5-7.5h5.1c4.1,0,7.5,3.4,7.5,7.5S60.7,335.4,56.5,335.4
				z"/>
		</g>
		<g class="st2">
			<path class="st21" d="M68.3,368.2H51.4c-4.1,0-7.5-3.4-7.5-7.5s3.3-7.5,7.5-7.5h16.8c4.1,0,7.5,3.4,7.5,7.5
				S72.4,368.2,68.3,368.2z"/>
		</g>
		<g class="st2">
			<path class="st20" d="M56.5,400.9h-5.1c-4.1,0-7.5-3.4-7.5-7.5s3.3-7.5,7.5-7.5h5.1c4.1,0,7.5,3.4,7.5,7.5
				C64,397.6,60.7,400.9,56.5,400.9z"/>
		</g>
		<g class="st2">
			<path class="st21" d="M68.3,270H51.4c-4.1,0-7.5-3.4-7.5-7.5s3.3-7.5,7.5-7.5h16.8c4.1,0,7.5,3.4,7.5,7.5S72.4,270,68.3,270z"/>
		</g>
		<path class="st22" d="M115.4,378.7c-5.8,0-10.5-4.7-10.5-10.5v-66.9c0-5.8,4.7-10.5,10.5-10.5s10.5,4.7,10.5,10.5v66.9
			C125.9,374,121.2,378.7,115.4,378.7z"/>
		<path class="st11" d="M212,130h94v134.6h-94V130z"/>
		<path class="st12" d="M212,264.6h33.2V188c0-13,10.7-23.7,23.7-23.7H306V130h-94V264.6z"/>
		<path class="st13" d="M212,262.5v191.8c0,26,21,47,47,47s47-21,47-47V262.5L212,262.5z"/>
		<path class="st14" d="M268.9,452.6c-13,0-23.7-10.7-23.7-23.7V262.5H212v191.8c0,26,21,47,47,47s47-21,47-47v-1.7L268.9,452.6z"/>
		<path class="st15" d="M315,51.1h-72c0,0-9.9,6.4,0,16.3v47.3c0,0-9.1,7.2,0,16.3h72c6,0,10.8-4.8,10.8-10.8V61.9
			C325.8,55.9,321,51.1,315,51.1z"/>
		<path class="st16" d="M245.2,51.1H203c-6,0-10.8,4.8-10.8,10.8v58.2c0,6,4.8,10.8,10.8,10.8h42.2c-9.1-9.1,0-16.3,0-16.3V67.4
			C235.2,57.4,245.2,51.1,245.2,51.1L245.2,51.1z"/>
		<g class="st2">
			<path class="st17" d="M272.8,114.6c-4.1,0-7.5-3.3-7.5-7.5V74.8c0-4.1,3.4-7.5,7.5-7.5s7.5,3.3,7.5,7.5v32.3
				C280.3,111.3,277,114.6,272.8,114.6z"/>
		</g>
		<g class="st2">
			<path class="st17" d="M300.5,114.6c-4.1,0-7.5-3.3-7.5-7.5V74.8c0-4.1,3.4-7.5,7.5-7.5s7.5,3.3,7.5,7.5v32.3
				C308,111.3,304.6,114.6,300.5,114.6z"/>
		</g>
		<g class="st2">
			<path class="st18" d="M245.2,114.6c-4.1,0-7.5-3.3-7.5-7.5V74.8c0-4.1,3.4-7.5,7.5-7.5s7.5,3.3,7.5,7.5v32.3
				C252.7,111.3,249.3,114.6,245.2,114.6z"/>
		</g>
		<g class="st2">
			<path class="st18" d="M217.5,114.6c-4.1,0-7.5-3.3-7.5-7.5V74.8c0-4.1,3.4-7.5,7.5-7.5s7.5,3.3,7.5,7.5v32.3
				C225,111.3,221.7,114.6,217.5,114.6z"/>
		</g>
		<g class="st2">
			<path class="st19" d="M229.9,171.7h-16.9c-4.1,0-7.5-3.4-7.5-7.5s3.4-7.5,7.5-7.5h16.9c4.1,0,7.5,3.4,7.5,7.5
				C237.4,168.4,234.1,171.7,229.9,171.7z"/>
		</g>
		<g class="st2">
			<path class="st19" d="M218.2,204.5h-5.1c-4.1,0-7.5-3.4-7.5-7.5s3.4-7.5,7.5-7.5h5.1c4.1,0,7.5,3.4,7.5,7.5
				S222.3,204.5,218.2,204.5z"/>
		</g>
		<g class="st2">
			<path class="st19" d="M218.2,237.2h-5.1c-4.1,0-7.5-3.4-7.5-7.5s3.4-7.5,7.5-7.5h5.1c4.1,0,7.5,3.4,7.5,7.5
				S222.3,237.2,218.2,237.2z"/>
		</g>
		<g class="st2">
			<path class="st20" d="M218.2,302.7h-5.1c-4.1,0-7.5-3.4-7.5-7.5s3.4-7.5,7.5-7.5h5.1c4.1,0,7.5,3.4,7.5,7.5
				S222.3,302.7,218.2,302.7z"/>
		</g>
		<g class="st2">
			<path class="st20" d="M218.2,335.4h-5.1c-4.1,0-7.5-3.4-7.5-7.5s3.4-7.5,7.5-7.5h5.1c4.1,0,7.5,3.4,7.5,7.5
				S222.3,335.4,218.2,335.4z"/>
		</g>
		<g class="st2">
			<path class="st21" d="M229.9,368.2h-16.9c-4.1,0-7.5-3.4-7.5-7.5s3.4-7.5,7.5-7.5h16.9c4.1,0,7.5,3.4,7.5,7.5
				S234.1,368.2,229.9,368.2z"/>
		</g>
		<g class="st2">
			<path class="st20" d="M218.2,400.9h-5.1c-4.1,0-7.5-3.4-7.5-7.5s3.4-7.5,7.5-7.5h5.1c4.1,0,7.5,3.4,7.5,7.5
				S222.3,400.9,218.2,400.9z"/>
		</g>
		<g class="st2">
			<path class="st20" d="M218.2,433.6h-5.1c-4.1,0-7.5-3.4-7.5-7.5s3.4-7.5,7.5-7.5h5.1c4.1,0,7.5,3.4,7.5,7.5
				S222.3,433.6,218.2,433.6z"/>
		</g>
		<g class="st2">
			<path class="st21" d="M229.9,270h-16.9c-4.1,0-7.5-3.4-7.5-7.5s3.4-7.5,7.5-7.5h16.9c4.1,0,7.5,3.4,7.5,7.5S234.1,270,229.9,270z
				"/>
		</g>
		<path class="st22" d="M277.1,378.7c-5.8,0-10.5-4.7-10.5-10.5v-66.9c0-5.8,4.7-10.5,10.5-10.5s10.5,4.7,10.5,10.5v66.9
			C287.5,374,282.8,378.7,277.1,378.7z"/>
		<path class="st11" d="M373.7,130h94v134.6h-94V130z"/>
		<path class="st12" d="M373.7,264.6h33.2V188c0-13,10.7-23.7,23.7-23.7h37.1v-36.4h-94V264.6z"/>
		<path class="st13" d="M467.7,379.7V262.5h-94v191.8c0,5.4,0.9,10.6,2.6,15.5C414.1,448.4,445.7,417.2,467.7,379.7L467.7,379.7z"/>
		<path class="st14" d="M406.8,428.9V262.5h-33.2v191.8c0,5.4,0.9,10.6,2.6,15.5c12.9-7.3,25.1-15.8,36.5-25.2
			C409.1,440.4,406.8,434.9,406.8,428.9L406.8,428.9z"/>
		<g class="st2">
			<path class="st19" d="M391.6,171.7h-16.9c-4.1,0-7.5-3.4-7.5-7.5s3.4-7.5,7.5-7.5h16.9c4.1,0,7.5,3.4,7.5,7.5
				C399.1,168.4,395.7,171.7,391.6,171.7z"/>
		</g>
		<g class="st2">
			<path class="st19" d="M379.8,204.5h-5.1c-4.1,0-7.5-3.4-7.5-7.5s3.4-7.5,7.5-7.5h5.1c4.1,0,7.5,3.4,7.5,7.5
				S384,204.5,379.8,204.5z"/>
		</g>
		<g class="st2">
			<path class="st19" d="M379.8,237.2h-5.1c-4.1,0-7.5-3.4-7.5-7.5s3.4-7.5,7.5-7.5h5.1c4.1,0,7.5,3.4,7.5,7.5
				S384,237.2,379.8,237.2z"/>
		</g>
		<g class="st2">
			<path class="st20" d="M379.8,302.7h-5.1c-4.1,0-7.5-3.4-7.5-7.5s3.4-7.5,7.5-7.5h5.1c4.1,0,7.5,3.4,7.5,7.5
				S384,302.7,379.8,302.7z"/>
		</g>
		<g class="st2">
			<path class="st20" d="M379.8,335.4h-5.1c-4.1,0-7.5-3.4-7.5-7.5s3.4-7.5,7.5-7.5h5.1c4.1,0,7.5,3.4,7.5,7.5
				S384,335.4,379.8,335.4z"/>
		</g>
		<g class="st2">
			<path class="st21" d="M391.6,368.2h-16.9c-4.1,0-7.5-3.4-7.5-7.5s3.4-7.5,7.5-7.5h16.9c4.1,0,7.5,3.4,7.5,7.5
				C399.1,364.8,395.7,368.2,391.6,368.2z"/>
		</g>
		<g class="st2">
			<path class="st20" d="M379.8,400.9h-5.1c-4.1,0-7.5-3.4-7.5-7.5s3.4-7.5,7.5-7.5h5.1c4.1,0,7.5,3.4,7.5,7.5
				S384,400.9,379.8,400.9z"/>
		</g>
		<g class="st2">
			<path class="st20" d="M379.8,433.6h-5.1c-4.1,0-7.5-3.4-7.5-7.5s3.4-7.5,7.5-7.5h5.1c4.1,0,7.5,3.4,7.5,7.5
				S384,433.6,379.8,433.6z"/>
		</g>
		<g class="st2">
			<path class="st21" d="M391.6,270h-16.9c-4.1,0-7.5-3.4-7.5-7.5s3.4-7.5,7.5-7.5h16.9c4.1,0,7.5,3.4,7.5,7.5
				C399.1,266.6,395.7,270,391.6,270z"/>
		</g>
		<path class="st22" d="M438.7,378.7c-5.8,0-10.5-4.7-10.5-10.5v-66.9c0-5.8,4.7-10.5,10.5-10.5s10.5,4.7,10.5,10.5v66.9
			C449.2,374,444.5,378.7,438.7,378.7z"/>
		<path class="st11" d="M469.7,106.4H414c-4.2,2.2-7.1,6.6-7.1,11.8c0,5.1,2.9,9.5,7.1,11.8h55.7c6.5,0,11.8-5.3,11.8-11.8
			C481.4,111.6,476.2,106.4,469.7,106.4z"/>
		<path class="st12" d="M414.9,106.4h-43.3c-6.5,0-11.8,5.3-11.8,11.8c0,6.5,5.3,11.8,11.8,11.8h43.3c-4.6-1.9-7.8-6.5-7.8-11.8
			C407.1,112.8,410.4,108.3,414.9,106.4z"/>
		<path class="st13" d="M415.7,47.5c-6,15.2-12.6,39.9,10.5,55.4c22.3-3.8,34.3-30,20.7-49.6c-5.7-8.1-11-14.9-15.4-21.9
			C426,33.9,419.3,38.6,415.7,47.5z"/>
		<g class="st2">
			<path class="st23" d="M420.7,103.4h0.1c2.5,0,4.9-0.3,7.2-0.8c-22.6-15.5-16-40-10-55.1c3.2-8,8.9-12.6,14.1-15.2
				c-3.8-6-7-12.1-9.1-19.2c-0.7-2.4-4-2.4-4.7,0c-4.4,15.1-13.6,25.5-23.9,40.3c-14.7,21.1,0.4,50.1,26.2,50.1H420.7z"/>
			<circle class="st23" cx="418.5" cy="57.6" r="8.1"/>
			<path class="st23" d="M418.3,68.8c0,3.9-3.2,7.1-7.1,7.1s-7.1-3.2-7.1-7.1c0-3.9,3.2-7.1,7.1-7.1
				C415.1,61.7,418.3,64.8,418.3,68.8z"/>
		</g>
	</g>
	<g class="st2">
		<path class="st24" d="M386.2,54l7-1C354.1,26.5,306.8,11,256,11s-98.1,15.5-137.2,42l6.8,1H386.2z"/>
		<path class="st24" d="M437.8,98H74.2L68,99c-35.6,42.5-57,97.3-57,157c0,57.5,19.8,110.4,53,152.2h196.7V313h231.6l2.2-1
			c4.2-18,6.4-36.7,6.4-56c0-59.7-21.4-114.5-56.9-157L437.8,98z"/>
		<g>
			<g>
				<path class="st25" d="M493,53H118.8c-19,12.9-36.2,28.4-50.9,46H493c2.8,0,5-2.2,5-5V58C498,55.2,495.8,53,493,53z"/>
			</g>
			<g>
				<g>
					<g>
						<path class="st26" d="M298.6,160h50.7v15.5h-50.7V160z"/>
					</g>
					<g>
						<path class="st27" d="M298.6,160H325v15.5h-26.4V160z"/>
					</g>
					<g>
						<path class="st28" d="M361,313v-42l-1-1h-24c-2.2,0-4-1.8-4-4v-55c0-2.2,1.8-4,4-4h24l1-1v-20c0-6.4-5.2-11.6-11.6-11.6h-50.9
							c-6.4,0-11.6,5.2-11.6,11.6v127H361z"/>
					</g>
					<g>
						<path class="st29" d="M361,206h-25c-2.8,0-5,2.2-5,5v55c0,2.8,2.2,5,5,5h25V206z"/>
					</g>
					<g>
						<path class="st25" d="M345,266v-55c0-2.8,2.2-5,5-5h-14c-2.8,0-5,2.2-5,5v55c0,2.8,2.2,5,5,5h14C347.2,271,345,268.8,345,266z
							"/>
					</g>
					<g>
						<path class="st26" d="M317,313V186c0-6.4,5.2-11.6,11.6-11.6h-30c-6.4,0-11.6,5.2-11.6,11.6v127H317z"/>
					</g>
					<g>
						<path class="st30" d="M351,161h-54c-5.5,0-10-4.5-10-10v-18.5c0-5.5,4.5-10,10-10h54c5.5,0,10,4.5,10,10V151
							C361,156.5,356.5,161,351,161z"/>
					</g>
					<g>
						<path class="st31" d="M317,147c-5.5,0-10-4.5-10-10v-14.6h-10c-5.5,0-10,4.5-10,10V151c0,5.5,4.5,10,10,10h54
							c5.5,0,10-4.5,10-10v-4H317z"/>
					</g>
				</g>
			</g>
			<g>
				<g>
					<g>
						<path class="st26" d="M389.6,160h50.7v15.5h-50.7V160z"/>
					</g>
					<g>
						<path class="st27" d="M389.6,160H416v15.5h-26.4V160z"/>
					</g>
					<g>
						<path class="st28" d="M452,313v-42l-1-1h-24c-2.2,0-4-1.8-4-4v-55c0-2.2,1.8-4,4-4h24l1-1v-20c0-6.4-5.2-11.6-11.6-11.6h-50.9
							c-6.4,0-11.6,5.2-11.6,11.6v127H452z"/>
					</g>
					<g>
						<path class="st29" d="M452,206h-25c-2.8,0-5,2.2-5,5v55c0,2.8,2.2,5,5,5h25V206z"/>
					</g>
					<g>
						<path class="st25" d="M436,266v-55c0-2.8,2.2-5,5-5h-14c-2.8,0-5,2.2-5,5v55c0,2.8,2.2,5,5,5h14C438.2,271,436,268.8,436,266z
							"/>
					</g>
					<g>
						<path class="st26" d="M408,313V186c0-6.4,5.2-11.6,11.6-11.6h-30c-6.4,0-11.6,5.2-11.6,11.6v127H408z"/>
					</g>
					<g>
						<path class="st30" d="M442,161h-54c-5.5,0-10-4.5-10-10v-18.5c0-5.5,4.5-10,10-10h54c5.5,0,10,4.5,10,10V151
							C452,156.5,447.5,161,442,161z"/>
					</g>
					<g>
						<path class="st31" d="M408,147c-5.5,0-10-4.5-10-10v-14.6h-10c-5.5,0-10,4.5-10,10V151c0,5.5,4.5,10,10,10h54
							c5.5,0,10-4.5,10-10v-4H408z"/>
					</g>
				</g>
			</g>
			<path class="st30" d="M259.7,312v97.2h183.6l4.7-1c22.1-27.8,38.2-60.5,46.5-96.2H259.7z"/>
			<path class="st31" d="M259.7,312H299v97.2h-39.3V312z"/>
			<g>
				<path class="st32" d="M71.7,217.9h189v191.3h-189V217.9z"/>
				<path class="st33" d="M97.2,391.5c-2.8,0-5-2.2-5-5v-91.3c0-2.8,2.2-5,5-5h18.3V250c0-2.8,2.2-5,5-5h3.5v-26H71.7v190.3H124
					v-17.7L97.2,391.5L97.2,391.5z"/>
				<path class="st28" d="M235.1,290.1h-19.3v62.7c0,2.2-1.8,4-4,4h-91.3c-2.2,0-4-1.8-4-4v-62.7H97.2c-2.8,0-5,2.2-5,5v91.3
					c0,2.8,2.2,5,5,5h137.9c2.8,0,5-2.2,5-5v-91.3C240.1,292.4,237.9,290.1,235.1,290.1L235.1,290.1z"/>
				<path class="st26" d="M145,386.5v-29.6h-24.5c-2.2,0-4-1.8-4-4v-62.7H97.2c-2.8,0-5,2.2-5,5v91.3c0,2.8,2.2,5,5,5H150
					C147.2,391.5,145,389.2,145,386.5z"/>
				<g>
					<path class="st29" d="M211.9,357.8h-91.3c-2.8,0-5-2.2-5-5V249.9c0-2.8,2.2-5,5-5h91.3c2.8,0,5,2.2,5,5v102.9
						C216.9,355.6,214.6,357.8,211.9,357.8z"/>
				</g>
				<g>
					<path class="st25" d="M146.7,352.8V249.9c0-2.8,2.2-5,5-5h-31.1c-2.8,0-5,2.2-5,5v102.9c0,2.8,2.2,5,5,5h31.1
						C148.9,357.8,146.7,355.6,146.7,352.8z"/>
				</g>
				<g>
					<path class="st34" d="M264.4,218.9H68c-5.5,0-10-4.5-10-10v-41.6c0-5.5,4.5-10,10-10h196.4c5.5,0,10,4.5,10,10v41.6
						C274.4,214.4,269.9,218.9,264.4,218.9z"/>
				</g>
				<g>
					<path class="st35" d="M120.6,198c-5.5,0-10-4.5-10-10v-30.7H68c-5.5,0-10,4.5-10,10v41.6c0,5.5,4.5,10,10,10h196.4
						c5.5,0,10-4.5,10-10V198H120.6z"/>
				</g>
			</g>
			<g>
				<path class="st36" d="M192.7,281.5h-53c-4.1,0-7.5-3.4-7.5-7.5s3.4-7.5,7.5-7.5h53c4.1,0,7.5,3.4,7.5,7.5
					S196.8,281.5,192.7,281.5z"/>
			</g>
			<g>
				<path class="st36" d="M192.7,305.5h-53c-4.1,0-7.5-3.4-7.5-7.5s3.4-7.5,7.5-7.5h53c4.1,0,7.5,3.4,7.5,7.5
					S196.8,305.5,192.7,305.5z"/>
			</g>
			<g>
				<path class="st36" d="M178.7,335.5h-25c-4.1,0-7.5-3.4-7.5-7.5s3.4-7.5,7.5-7.5h25c4.1,0,7.5,3.4,7.5,7.5
					S182.8,335.5,178.7,335.5z"/>
			</g>
			<g>
				<path class="st37" d="M64,408.2c44.9,56.5,114.2,92.8,192,92.8s147.1-36.3,192-92.8H64z"/>
			</g>
		</g>
		<g>
			<g>
				<path class="st25" d="M493,53H118.8c-19,12.9-36.2,28.4-50.9,46H493c2.8,0,5-2.2,5-5V58C498,55.2,495.8,53,493,53z"/>
			</g>
			<g>
				<path class="st38" d="M143,82c-2.8,0-5-2.2-5-5V53h-19.2c-19,12.9-36.2,28.4-50.9,46H493c2.8,0,5-2.2,5-5V82H143z"/>
			</g>
			<g>
				<path class="st28" d="M466,53v46h-42V53H466z"/>
			</g>
			<path class="st26" d="M424,82h42v17h-42V82z"/>
			<g>
				<path class="st39" d="M399,53v46h-42V53H399z"/>
			</g>
			<path class="st40" d="M357,82h42v17h-42V82z"/>
			<g>
				<path class="st34" d="M332,53v46h-42V53H332z"/>
			</g>
			<g>
				<g>
					<path class="st41" d="M265,53v46h-42V53H265z"/>
				</g>
				<path class="st42" d="M223,82h42v17h-42V82z"/>
				<g>
					<path class="st43" d="M198,53v46h-42V53H198z"/>
				</g>
				<path class="st44" d="M156,82h42v17h-42V82z"/>
			</g>
		</g>
		<path class="st35" d="M290,82h42v17h-42V82z"/>
	</g>
</g>
<g id="Layer_4">
	<g>
		<circle class="st24" cx="256" cy="256" r="245"/>
		<circle class="st45" cx="256.7" cy="255.5" r="245"/>
		<g>
			<g>
				<defs>
					<path id="SVGID_00000109752269301158203440000001978407574823258807_" d="M409.1-2.1L512-0.5v480.2c0,0-147.4-3.6-166,3.7
						c-27.9,11-58.2,17-90,17c-24.6,0-48.3-3.6-70.6-10.3C157.3,481.7,0,471.8,0,471.8V215.4V-0.5h127.9c0,0,92.2-4,128.1-4"/>
				</defs>
				<clipPath id="SVGID_00000158710132561434275540000006153878082451874694_">
					<use xlink:href="#SVGID_00000109752269301158203440000001978407574823258807_"  style="overflow:visible;"/>
				</clipPath>
				<g style="clip-path:url(#SVGID_00000158710132561434275540000006153878082451874694_);">
					<path class="st47" d="M302.4,144.1l0.7,316.4c0,30.5-16.6,55.1-47.1,55.1c-6.6,0-13.1,5.7-18.9,3.6
						c-21.3-7.7-36.4-28-36.4-51.9V144.1c27.7,0,27.7-4.5,55.4-4.5C283.7,139.6,272.3,137.5,302.4,144.1L302.4,144.1z"/>
					<path class="st48" d="M258.5,82l-57.9,8.7v53.4c27.7,0,27.7,8.2,55.4,8.2c21.4,0,26.3-4.9,40.1-7.2v-57L258.5,82z"/>
					<path class="st49" d="M311.4,144.1v323.2c0,30.5-24.7,55.2-55.2,55.2h-0.3c-6.6,0-12.9-1.2-18.7-3.3
						c21.3-7.7,36.4-28,36.4-51.9V150.9C286.8,135.9,292.5,133.2,311.4,144.1L311.4,144.1z"/>
					<g>
						<g>
							<path class="st50" d="M309.1,238.5H256c-4.3,0-7.7-3.5-7.7-7.7s3.5-7.7,7.7-7.7h53.1c4.3,0,7.7,3.5,7.7,7.7
								S313.4,238.5,309.1,238.5z"/>
						</g>
						<g>
							<path class="st50" d="M256,364.5h-49.1c-4.3,0-7.7-3.5-7.7-7.7s3.5-7.7,7.7-7.7H256c4.3,0,7.7,3.5,7.7,7.7
								S260.3,364.5,256,364.5z"/>
						</g>
					</g>
					<path class="st51" d="M311.4,90.7v53.4c-20.2,0-25.6,4.4-37.8,6.7V90.7l18.9-13L311.4,90.7z"/>
					<path class="st52" d="M184.9,90.7h38.2l7.7-4.5l7.8,4.5h35l7.7-4.5l7.8,4.5h38.1c5.9,0,10.7-4.8,10.7-10.7V21.2
						c-0.1-5.9-4.9-10.7-10.8-10.7H289l-7.6,6.4l-7.9-6.4h-35l-8.9,6.4l-6.5-6.4h-38.2c-5.9,0-10.7,4.8-10.7,10.7V80
						C174.2,85.9,179,90.7,184.9,90.7L184.9,90.7z"/>
					<g>
						<g>
							<path class="st53" d="M273.5,10.5H289v80.2h-15.5V10.5z"/>
							<path class="st53" d="M223.1,10.5h15.5v80.2h-15.5V10.5z"/>
						</g>
					</g>
					<g>
						<path class="st48" d="M496.1,230.7c0,58.8-42.5,97.7-101.2,97.7c-38.7,0-64.6-16.5-90.5-42.8c-9.7-16-15.3-34.9-15.3-55
							c0-58.8,47.6-106.4,106.4-106.4c20.1,0,38.9,5.6,55,15.3C472.9,167.3,496.1,192.1,496.1,230.7L496.1,230.7z"/>
						<path class="st51" d="M502,230.7c0,58.8-47.6,106.4-106.4,106.4c-38.7,0-72.5-20.6-91.1-51.4c16,9.7,34.9,15.3,55,15.3
							c58.8,0,106.4-47.6,106.4-106.4c0-20.1-5.6-38.9-15.3-55C481.4,158.2,502,192.1,502,230.7L502,230.7z"/>
						<g>
							<circle class="st52" cx="386.4" cy="171.8" r="14.9"/>
							
								<ellipse transform="matrix(0.243 -0.97 0.97 0.243 157.8262 558.9891)" class="st52" cx="437.1" cy="178.4" rx="7.7" ry="7.7"/>
							<ellipse transform="matrix(0.243 -0.97 0.97 0.243 84.2677 560.0927)" class="st52" cx="401" cy="226.1" rx="7.7" ry="7.7"/>
							
								<ellipse transform="matrix(0.243 -0.97 0.97 0.243 68.2909 466.6077)" class="st52" cx="333.1" cy="189.5" rx="7.7" ry="7.7"/>
						</g>
						<ellipse class="st53" cx="437.1" cy="288.7" rx="7.7" ry="7.7"/>
						<circle class="st52" cx="460.9" cy="235.8" r="14.9"/>
						<circle class="st52" cx="389.6" cy="289" r="14.9"/>
						<path class="st53" d="M470.9,246.9c-5.4,4.9-13.5,5.1-19.2,0.7c4.7-8.2,8.4-17.2,10.8-26.6c3.5,0.4,6.8,2,9.4,4.8
							C477.5,231.9,477,241.3,470.9,246.9z"/>
						<path class="st53" d="M378.7,299.2c9-1.6,17.6-4.4,25.7-8.2c-1,7.3-7.2,12.9-14.8,12.9C385.3,303.9,381.5,302.1,378.7,299.2
							L378.7,299.2z"/>
						<circle class="st52" cx="345.3" cy="238.5" r="14.9"/>
					</g>
					<g>
						<path class="st48" d="M218.9,356.8c0,59.2-40.7,99.1-99.8,99.1c-40.8,0-65.8-19.8-94.4-48.4C16.6,392.4,12,375.1,12,356.8
							c0-59.2,48-107.1,107.1-107.1c18.3,0,35.6,4.6,50.7,12.7C199.2,289.5,218.9,316,218.9,356.8L218.9,356.8z"/>
						<path class="st51" d="M226.2,356.8c0,59.2-48,107.1-107.1,107.1c-40.8,0-76.3-22.8-94.4-56.4c15.1,8.1,32.4,12.7,50.7,12.7
							c59.2,0,107.1-48,107.1-107.1c0-18.3-4.6-35.6-12.7-50.7C203.4,280.5,226.2,316,226.2,356.8z"/>
						<circle class="st54" cx="196.8" cy="374.2" r="7.7"/>
						
							<ellipse transform="matrix(0.8956 -0.4448 0.4448 0.8956 -131.3499 72.8126)" class="st47" cx="89.5" cy="316.3" rx="42.4" ry="29.3"/>
						<g>
							<path class="st49" d="M75,330.6c-3.5,0-6.7-2.5-7.5-6.1c-0.9-4.2,1.7-8.3,5.9-9.2c4-0.9,8-2.3,11.8-4.2
								c4.7-2.3,8.9-5.2,12.5-8.7c3.1-2.9,8-2.8,10.9,0.3c2.9,3.1,2.8,8-0.3,10.9c-4.7,4.5-10.2,8.3-16.3,11.3
								c-5,2.5-10.1,4.3-15.3,5.5C76.1,330.6,75.5,330.6,75,330.6z"/>
						</g>
						<path class="st47" d="M164.9,408.6c-3,15.9-20.5,23.3-43.5,18.9c-10.1-1.9-16-5.4-25.6-9.2c-8.2-7-12.6-16.2-10.9-25.1
							c3-15.9,24.1-25.2,47.1-20.8c9.6,1.8,18.1,5.8,24.4,10.9C163,393.9,166.6,399.3,164.9,408.6z"/>
						<g>
							<path class="st49" d="M136,410.9c-4.2,0-8.5-0.4-12.7-1.2c-5.4-1-10.7-2.7-15.5-4.9c-3.9-1.8-5.6-6.4-3.8-10.2
								c1.8-3.9,6.4-5.6,10.2-3.8c3.7,1.7,7.7,3,12,3.8c5.2,1,10.3,1.2,15.2,0.7c4.2-0.5,8.1,2.6,8.5,6.8c0.5,4.2-2.6,8.1-6.8,8.5
								C140.8,410.8,138.4,410.9,136,410.9z"/>
						</g>
						<g>
							
								<ellipse transform="matrix(0.1871 -0.9823 0.9823 0.1871 -188.6682 443.1753)" class="st47" cx="173.4" cy="335.6" rx="14.3" ry="17.7"/>
						</g>
						<path class="st49" d="M168.1,409.1c-3,15.9-24.1,25.2-47.1,20.8c-10.1-1.9-18.8-6.1-25.2-11.6c24-4.6,45.2-17.2,60.6-35
							C165.1,390.4,169.9,399.9,168.1,409.1L168.1,409.1z"/>
						<path class="st54" d="M143.1,410.5c-2.3,0.3-4.7,0.4-7.1,0.4c-4.2,0-8.5-0.4-12.7-1.2c-0.4-0.1-0.7-0.1-1.1-0.2
							c7.9-3.8,15.2-8.6,21.8-14.1c3.1,0.7,5.5,3.3,5.9,6.6C150.4,406.3,147.3,410.1,143.1,410.5L143.1,410.5z"/>
						<g>
							<path class="st49" d="M191,338.9c-1.2,6.3-7.4,10.7-14.9,11.1c3.1-8.4,5.1-17.2,6-26.4C188.3,326.8,192.1,332.9,191,338.9
								L191,338.9z"/>
							<circle class="st49" cx="161" cy="291.5" r="7.7"/>
							
								<ellipse transform="matrix(1.612224e-02 -0.9999 0.9999 1.612224e-02 -347.7469 439.2323)" class="st49" cx="49.3" cy="396.3" rx="7.7" ry="7.7"/>
						</g>
					</g>
					<g>
						<circle class="st48" cx="256" cy="230.7" r="17.5"/>
						<circle class="st48" cx="256" cy="356.8" r="17.5"/>
					</g>
				</g>
			</g>
		</g>
	</g>
</g>
</svg>
