<?xml version="1.0" encoding="utf-8"?>
<!-- Generator: Adobe Illustrator 27.8.1, SVG Export Plug-In . SVG Version: 6.00 Build 0)  -->
<svg version="1.1" id="Layer_1" xmlns="http://www.w3.org/2000/svg" xmlns:xlink="http://www.w3.org/1999/xlink" x="0px" y="0px"
	 viewBox="0 0 512 512" style="enable-background:new 0 0 512 512;" xml:space="preserve">
<style type="text/css">
	.st0{fill:#49B1F7;}
	.st1{enable-background:new    ;}
	.st2{fill:#006CB5;}
	.st3{fill:#3F9AE0;}
	.st4{fill:#D6D4D2;}
	.st5{fill:#E9E8E6;}
	.st6{fill:#0074D1;}
	.st7{fill:#00649B;}
	.st8{fill:#C44141;}
	.st9{fill:#F25A5A;}
	.st10{fill:#DDB040;}
	.st11{fill:#FFD651;}
	.st12{fill:#81D672;}
	.st13{fill:#494846;}
	.st14{fill:#FFFFFF;}
	.st15{fill:#B2B0AF;}
	.st16{fill:#383736;}
</style>
<circle class="st0" cx="256" cy="256" r="245"/>
<g>
	<g>
		<g>
			<g>
				<g>
					<g class="st1">
						<g>
							<path class="st2" d="M488.7,289.9l-0.2,52.4c-0.1,17.9-10.5,35.7-39.1,50.9c-94.6,59.9-247.5-16.5-255.5-20.6
								c-3.7-1.6-74.1-32.9-118.6-58.5c-11.7-6.7-21.3-13-27.1-18c-15.3-13.4-18.6-22.8-18.6-28.4v-2.2c-2.5-2.3-4-4.1-5.1-5.7
								c-0.8-1.2-1.1-2.5-1.1-3.7l0.2-52.4c0-1.4,0.4-2.7,1.1-3.9c26.7-43.9,65.6-62.7,67.7-63.7c1.7-1.2,34.1-23.8,109.7-39.4
								c4.3-0.9,9-1,13.2-0.1c2.1,0.5,4.6,1.1,7.5,2.1c6.6-1.1,25.3-2.2,57.8,10.1c8.6,3.3,19.4,8.8,31,15.5
								c44.5,25.7,98.7,66.4,101.6,68.5c5.3,3.6,86,57.4,74.3,106.9C488.3,296.5,488.7,293.2,488.7,289.9L488.7,289.9z"/>
						</g>
					</g>
				</g>
				<g>
					<g class="st1">
						<g>
							<path class="st3" d="M229.5,153.7c-2.5-1-4.8-1.9-6.9-2.6l0.1-52.4c2.1,0.7,4.4,1.5,6.9,2.6
								C229.6,118.8,229.6,136.2,229.5,153.7z"/>
						</g>
						<g>
							<path class="st3" d="M239.6,158.4c-3.9-2-7.1-3.5-10.1-4.7c0-17.5,0.1-34.9,0.1-52.4c2.9,1.2,6.1,2.7,10.1,4.7
								C239.7,121.7,239.6,142.6,239.6,158.4z"/>
						</g>
						<g>
							<path class="st3" d="M355.2,180.4l-0.1,52.4l-115.5-74.5l0.1-52.4L355.2,180.4z"/>
						</g>
						<g>
							<path class="st4" d="M23.3,256l0.1-52.4c0,1.3,0.4,2.6,1.2,3.8c1,1.6,2.7,3.5,5.3,5.9c2.6,2.4,6.1,5.1,10.9,8.2l-0.1,52.4
								c-4.8-3.1-8.4-5.9-10.9-8.2c-2.6-2.4-4.2-4.3-5.3-5.9C23.7,258.6,23.3,257.3,23.3,256z"/>
						</g>
						<g>
							<path class="st3" d="M387.1,227.1l-0.1,52.4c0-1.7-0.1-3.5-0.3-5.1c-1.9-15.5-13.6-30-31.5-41.6l0.1-52.4
								c18,11.6,29.6,26.1,31.5,41.6C387,223.7,387.1,225.4,387.1,227.1z"/>
						</g>
						<g>
							<path class="st5" d="M387.1,227.1l-0.1,52.4c0,15.9-9.6,35.1-41.2,55.3l0.1-52.4C377.5,262.2,387,243,387.1,227.1z"/>
						</g>
						<g>
							<path class="st5" d="M169.7,288.2l-0.1,52.4L40.7,273.9l0.1-52.4L169.7,288.2z"/>
						</g>
						<g>
							<path class="st5" d="M345.8,282.4l-0.1,52.4c-17.9,9.5-35.4,15.6-51.9,19.2c-19,4.2-36.8,5.3-52.2,4.7
								c-26.7-1.1-51.9-7.8-72-18.1l0.1-52.4c20,10.4,45.2,17,72,18.1c15.5,0.6,33.2-0.4,52.2-4.7
								C310.4,298,327.9,291.9,345.8,282.4z"/>
						</g>
						<g>
							<path class="st6" d="M48.3,296.1c-15.3-13.4-18.7-22.8-18.7-28.4l0.1-52.4c0,5.6,3.4,15,18.7,28.4c5.7,5,15.3,11.3,27,18
								c44.5,25.7,114.9,56.9,118.6,58.5l-0.1,52.4c-3.7-1.6-74.1-32.8-118.6-58.5C63.6,307.4,54,301.2,48.3,296.1z"/>
						</g>
						<g>
							<path class="st7" d="M488.7,289.9l-0.1,52.4c-0.1,17.9-10.5,35.7-39.1,50.9l0.1-52.4C478.2,325.6,488.6,307.8,488.7,289.9z"
								/>
						</g>
						<g>
							<path class="st3" d="M311.7,124.3c44.5,25.7,98.7,66.4,101.5,68.6c7,4.6,139.4,92.9,36.4,147.9
								c-94.6,59.9-247.5-16.6-255.6-20.6c-3.7-1.6-74.1-32.8-118.6-58.5c-11.7-6.8-21.3-13-27-18c-17.3-15.2-19.4-25.1-18.5-30.4
								c2.6,2.4,6.1,5.1,10.9,8.2l128.9,66.7c20.1,10.3,45.2,17,72,18.1c15.5,0.6,33.2-0.4,52.2-4.7c16.5-3.7,34-9.7,51.9-19.2
								c35.1-22.4,43-43.7,40.9-60.4c-1.9-15.5-13.6-30-31.5-41.6l-115.5-74.5c-3.9-2-7.1-3.5-10.1-4.7c-2.5-1-4.8-1.9-6.9-2.6
								c6.6-1.1,25.3-2.2,57.8,10.1C289.3,112.1,300,117.6,311.7,124.3L311.7,124.3z"/>
						</g>
						<g>
							<path class="st5" d="M239.3,105.7l115.9,74.7c18,11.6,29.6,26.1,31.5,41.6c2.1,16.7-5.8,38-40.9,60.4
								c-17.9,9.5-35.4,15.6-51.9,19.2c-19,4.2-36.8,5.3-52.2,4.7c-26.7-1.1-51.9-7.8-72-18.1L40.8,221.5c-4.8-3.1-8.4-5.9-10.9-8.2
								c-2.6-2.4-4.2-4.3-5.3-5.9c-1.6-2.4-1.5-5.2,0-7.6c26.8-43.9,65.7-62.7,67.7-63.7c1.7-1.2,34.1-23.8,109.7-39.4
								c4.3-0.9,9-0.9,13.2,0c2.1,0.5,4.6,1.1,7.5,2.1c2.1,0.7,4.4,1.5,6.9,2.6C232.6,102.5,235.8,104,239.3,105.7z"/>
						</g>
						<g>
							<path class="st2" d="M449.6,340.8l-0.1,52.4c-94.6,59.9-247.5-16.6-255.6-20.6l0.1-52.4C202.1,324.3,354.9,400.7,449.6,340.8
								z"/>
						</g>
					</g>
				</g>
				<g>
					<g class="st1">
						<g>
							<path class="st8" d="M397.8,272.3l0,9.9c0,4.5,3,9.1,8.9,12.5c12,7,31.5,6.9,43.5,0c6.1-3.5,9.1-8.1,9.1-12.7l0-9.9
								c0,4.6-3,9.2-9.1,12.7c-12.1,7-31.6,7-43.5,0C400.8,281.3,397.8,276.8,397.8,272.3z"/>
						</g>
						<g>
							<path class="st9" d="M406.9,259.6c-12.1,7-12.1,18.3-0.1,25.2c12,7,31.5,6.9,43.5,0c12.1-7,12.1-18.2,0.1-25.2
								C438.4,252.6,418.9,252.6,406.9,259.6z"/>
						</g>
					</g>
					<g class="st1">
						<g>
							<path class="st10" d="M319.7,317.3l0,9.9c0,4.5,3,9.1,9,12.5c12,7,31.5,7,43.5,0c6.1-3.5,9.1-8.1,9.1-12.7l0-9.9
								c0,4.6-3,9.2-9.1,12.7c-12.1,7-31.5,7-43.5,0C322.7,326.4,319.7,321.9,319.7,317.3z"/>
						</g>
						<g>
							<path class="st11" d="M328.8,304.7c-12.1,7-12.1,18.3-0.1,25.2c12,7,31.5,7,43.5,0c12.1-7,12.1-18.2,0.1-25.2
								C360.3,297.7,340.8,297.7,328.8,304.7z"/>
						</g>
					</g>
				</g>
				<g>
					<path class="st12" d="M295,188.4l-113.8,65.7c-11.9,6.9-31.1,6.9-42.9,0l-59-34.3c-11.8-6.8-11.7-18,0.2-24.8l113.8-65.7
						c11.8-6.8,31-6.8,42.8,0l59,34.3C306.9,170.4,306.9,181.5,295,188.4z"/>
				</g>
				<g>
					<g>
						<path class="st13" d="M193.3,129.3c11.8-6.8,31-6.8,42.8,0l59,34.3c11.8,6.9,11.7,18-0.1,24.8l-113.8,65.7
							c-11.9,6.9-31.1,6.9-42.9,0l-59-34.3c-11.8-6.8-11.7-18,0.2-24.8L193.3,129.3z M145.8,249.8c7.7,4.5,20.3,4.5,28,0l113.8-65.7
							c7.7-4.4,7.7-11.7,0.1-16.2l-59-34.3c-7.6-4.4-20.2-4.4-27.9,0L87,199.3c-7.7,4.5-7.8,11.7-0.1,16.2L145.8,249.8z"/>
					</g>
					<g>
						<path class="st4" d="M320.5,229.5l-78,45c-3.1,1.8-7.2,2.8-11.6,2.8c-4.4-0.1-8.5-1-11.6-2.8c-6.3-3.7-6.3-9.7,0.1-13.4l78-45
							c3.1-1.8,7.2-2.8,11.6-2.8c4.3-0.1,8.4,1,11.6,2.8C326.9,219.7,326.9,225.8,320.5,229.5z"/>
					</g>
				</g>
				<g>
					<g>
						<path class="st13" d="M193.2,215.4c-1.3,2-3.4,3.9-6.3,5.6c-5.8,3.4-12.2,5-19,4.8c-6.8-0.2-13.7-2.2-20.3-6
							c-4.8-2.8-7.9-5.6-9.6-8.6c-1.6-3-1.6-5.9-0.3-8.8c1.4-2.8,4.2-5.5,8.4-7.9c2.2-1.3,4.6-2.4,7.2-3.3c2.5-0.9,4.9-1.5,7.3-1.8
							l3.5,6.2c-3.5,0.4-6.7,1.5-9.8,3.3c-3.5,2.1-5.3,4.3-5.3,6.6c0,2.4,1.8,4.8,5.7,7.1c-0.1-2.8,2.2-5.6,6.5-8.1
							c2.7-1.6,5.6-2.6,8.9-3.3c3.2-0.6,6.5-0.7,9.7-0.3c3.2,0.4,6.2,1.3,8.8,2.8c2.8,1.6,4.5,3.5,5.3,5.4
							C194.7,211.3,194.5,213.4,193.2,215.4z M172,219.3c2.5-0.1,4.8-0.8,7-2.1c2.1-1.2,3.2-2.5,3.4-3.8c0.2-1.4-0.8-2.7-2.6-3.8
							c-2-1.1-4-1.6-6.5-1.5c-2.4,0.1-4.7,0.8-6.8,2c-2.1,1.2-3.3,2.5-3.4,4c-0.2,1.4,0.7,2.7,2.5,3.8
							C167.4,218.9,169.6,219.4,172,219.3"/>
					</g>
					<g>
						<path class="st13" d="M211.8,199.5c1.7,1,2.6,2.1,2.5,3.4c0,1.3-0.8,2.4-2.4,3.3c-1.7,1-3.5,1.4-5.8,1.4
							c-2.1,0-4.1-0.5-5.8-1.5c-1.7-1-2.6-2.1-2.5-3.3c0.1-1.3,0.9-2.4,2.5-3.3c1.6-0.9,3.5-1.4,5.7-1.4
							C208.2,198,210.1,198.5,211.8,199.5z"/>
					</g>
					<g>
						<path class="st13" d="M217.6,161.2l20.1,29.5l-10.5,6.1l-19.1-28.3l-13.8,8l6.9,4l-8.6,5l-14.7-8.5l33.3-19.4L217.6,161.2z"/>
					</g>
				</g>
				<g>
					<g>
						<path class="st14" d="M371.2,323.1l-35.7,3.6l6.1-20.7L371.2,323.1z"/>
					</g>
				</g>
				<g>
					<path class="st14" d="M443.9,263.1l-6.1,20.7l-29.6-17.1L443.9,263.1z"/>
				</g>
			</g>
			<g>
				<g>
					<g>
						<path class="st15" d="M211.3,116.9c-48.2-21.1-91.2,3.1-108.3,13c-0.4,0.2-0.7,0.4-1,0.6c-2.7,1.6-5.3,3.1-8,4.7
							c-2.7,1.6-5.4,3.1-8.1,4.6c-0.3,0.2-0.7,0.4-1,0.6c-17,9.8-49,28.4-12.7,56.4"/>
					</g>
					<g>
						<g class="st1">
							<g>
								<path class="st15" d="M44.2,119.5l0,2.8l72.1,41.7l0-2.8L44.2,119.5z"/>
							</g>
							<g>
								<path class="st4" d="M44.2,119.5l69.8,40.6l23.9-13.8l-69.8-40.6L44.2,119.5z"/>
							</g>
						</g>
					</g>
					<g>
						<g>
							<g class="st1">
								<g>
									<path class="st4" d="M116.3,156.2l-0.1-28.7c0-1.3-0.6-2.5-2-3.3l0.1,28.7C115.6,153.7,116.3,154.9,116.3,156.2z"/>
								</g>
								<g>
									<path class="st5" d="M211.3,116.9L72.1,196.7c-29.8-23-14.9-38.7,2.6-50.3c5.2,2.8,18.3,0.5,29-5.7
										c10.7-6.2,15.1-13.8,10.1-16.9C135.2,112.7,171.7,99.5,211.3,116.9L211.3,116.9z"/>
								</g>
							</g>
						</g>
					</g>
				</g>
				<g>
					<g>
						<path class="st16" d="M47.8,117.5l13.2,7.7c1,0.6,2.6,0.6,3.6,0c1-0.6,1-1.5,0-2.1l-13.2-7.7L47.8,117.5z"/>
					</g>
					<g>
						<path class="st16" d="M54.6,113.5l13.2,7.7c1,0.6,2.6,0.6,3.6,0c1-0.6,1-1.5,0-2.1l-13.2-7.7L54.6,113.5z"/>
					</g>
					<g>
						<path class="st16" d="M61.4,109.6l13.2,7.7c1,0.6,2.6,0.6,3.6,0c1-0.6,1-1.5,0-2.1L65,107.5L61.4,109.6z"/>
					</g>
				</g>
			</g>
		</g>
	</g>
</g>
</svg>
