<?xml version="1.0" encoding="utf-8"?>
<!-- Generator: Adobe Illustrator 27.8.1, SVG Export Plug-In . SVG Version: 6.00 Build 0)  -->
<svg version="1.1" id="Capa_1" xmlns="http://www.w3.org/2000/svg" xmlns:xlink="http://www.w3.org/1999/xlink" x="0px" y="0px"
	 viewBox="0 0 512 512" style="enable-background:new 0 0 512 512;" xml:space="preserve">
<style type="text/css">
	.st0{fill:#49B1F7;}
	.st1{fill:#DFF6FD;}
	.st2{fill:#C8EFFE;}
	.st3{fill:#FD8087;}
	.st4{fill:#FE646F;}
	.st5{fill:#528FD8;}
	.st6{fill:#0573CE;}
	.st7{fill:#C0D6F2;}
	.st8{fill:#B2CAEC;}
</style>
<circle class="st0" cx="256" cy="256" r="245"/>
<g>
	<g>
		<path class="st1" d="M408.8,407h-37.6c-5.5,0-10-4.5-10-10V294h57.6v103C418.8,402.5,414.4,407,408.8,407z"/>
	</g>
	<g>
		<path class="st2" d="M390,338.8c9.9,0,19.5-1,28.8-2.9V294h-57.6v41.9C370.6,337.8,380.2,338.8,390,338.8z"/>
	</g>
	<g>
		<g>
			<path class="st3" d="M131.4,161.9c3.8-3.3,9.4-3.3,13.2,0c26.2,22.9,121.4,112.1,121.4,195.4c0,70.7-57.3,128-128,128
				S10,428,10,357.3C10,273.9,105.2,184.8,131.4,161.9L131.4,161.9z"/>
		</g>
		<g>
			<path class="st4" d="M227.3,254c1.5,7.8,2.4,15.6,2.4,23.4c0,70.7-57.3,128-128,128c-35.8,0-68.1-14.7-91.3-38.4
				c5,66.1,60.1,118.3,127.6,118.3c70.7,0,128-57.3,128-128C265.9,322.1,248.9,285.9,227.3,254L227.3,254z"/>
		</g>
	</g>
	<g>
		<path class="st1" d="M229.9,485.2h-81c-5.9,0-10.7-4.8-10.7-10.7v-81c0-5.9,4.8-10.7,10.7-10.7h81c5.9,0,10.7,4.8,10.7,10.7v81
			C240.5,480.5,235.7,485.2,229.9,485.2L229.9,485.2z"/>
	</g>
	<g>
		<path class="st2" d="M229.9,382.9h-6.6c0,47-38.1,85.2-85.1,85.3v6.4c0,5.9,4.8,10.7,10.7,10.7h81c5.9,0,10.7-4.8,10.7-10.7v-81
			C240.5,387.7,235.7,382.9,229.9,382.9z"/>
	</g>
	<g>
		<path class="st1" d="M332.2,485.2h-81c-5.9,0-10.7-4.8-10.7-10.7v-81c0-5.9,4.8-10.7,10.7-10.7h81c5.9,0,10.7,4.8,10.7,10.7v81
			C342.9,480.5,338.1,485.2,332.2,485.2L332.2,485.2z"/>
	</g>
	<g>
		<path class="st2" d="M322.2,382.9h-6.6c0,47-38.1,85.2-85.1,85.3v6.4c0,5.9,4.8,10.7,10.7,10.7h81c5.9,0,10.7-4.8,10.7-10.7v-81
			C332.9,387.7,328.1,382.9,322.2,382.9z"/>
	</g>
	<g>
		<path class="st1" d="M281,382.9h-81c-5.9,0-10.7-4.8-10.7-10.7v-81c0-5.9,4.8-10.7,10.7-10.7h81c5.9,0,10.7,4.8,10.7,10.7v81
			C291.7,378.1,286.9,382.9,281,382.9z"/>
	</g>
	<g>
		<path class="st2" d="M281,280.5h-6.6c0,47-38.1,85.2-85.1,85.3v6.4c0,5.9,4.8,10.7,10.7,10.7h81c5.9,0,10.7-4.8,10.7-10.7v-81
			C291.7,285.3,286.9,280.5,281,280.5L281,280.5z"/>
	</g>
	<g>
		<path class="st5" d="M390,304.6c-61.8,0-112-50.1-112-112V38.1c0-11.8,9.5-21.3,21.3-21.3h181.3c11.8,0,21.3,9.5,21.3,21.3v154.6
			C502,254.5,451.9,304.6,390,304.6z"/>
	</g>
	<g>
		<path class="st6" d="M480.7,16.8h-32c11.8,0,21.3,9.5,21.3,21.3v154.6c0,56.4-41.7,103.1-96,110.8c5.2,0.7,10.6,1.1,16,1.1
			c61.8,0,112-50.1,112-112V38.1C502,26.3,492.5,16.7,480.7,16.8L480.7,16.8z"/>
	</g>
	<g>
		<path class="st1" d="M459.3,166H320.7c-5.9,0-10.7-4.8-10.7-10.7v-96c0-5.9,4.8-10.7,10.7-10.7h138.6c5.9,0,10.7,4.8,10.7,10.7v96
			C470,161.3,465.2,166,459.3,166z"/>
	</g>
	<g>
		<path class="st7" d="M459.3,208.7v12.5c0,5.7-2.2,11.1-6.2,15.1l-19.5,19.5c-4,4-9.4,6.2-15.1,6.2h-57c-5.7,0-11.1-2.2-15.1-6.2
			L327,236.3c-4-4-6.2-9.4-6.2-15.1v-12.5c0-5.9,4.8-10.7,10.7-10.7h117.3C454.6,198,459.3,202.8,459.3,208.7L459.3,208.7z"/>
	</g>
	<g>
		<path class="st3" d="M386.7,84.9c1.7-2.2,5-2.2,6.7,0c5.2,6.8,14.8,20.5,14.8,31c0,10-8.1,18.1-18.1,18.1s-18.1-8.1-18.1-18.1
			C371.9,105.4,381.4,91.6,386.7,84.9L386.7,84.9z"/>
	</g>
	<g>
		<path class="st8" d="M382.5,198h15v64h-15V198z"/>
	</g>
	<g>
		<circle class="st3" cx="390" cy="375" r="7.5"/>
	</g>
</g>
</svg>
