<?xml version="1.0" encoding="utf-8"?>
<!-- Generator: Adobe Illustrator 27.8.1, SVG Export Plug-In . SVG Version: 6.00 Build 0)  -->
<svg version="1.1" id="Layer_1" xmlns="http://www.w3.org/2000/svg" xmlns:xlink="http://www.w3.org/1999/xlink" x="0px" y="0px"
	 viewBox="0 0 512 512" style="enable-background:new 0 0 512 512;" xml:space="preserve">
<style type="text/css">
	.st0{fill:#49B1F7;}
	.st1{fill:#FFA4AD;}
	.st2{fill:#601B2A;}
	.st3{fill:#70222F;}
	.st4{fill:#8D2830;}
	.st5{fill:#B72E37;}
	.st6{fill:#FB7F83;}
	.st7{fill:#FFA1A8;}
	.st8{fill:#FFC4C5;}
	.st9{fill:#D83F4E;}
</style>
<circle class="st0" cx="256" cy="256" r="245"/>
<g id="Artboard_12">
	<path class="st1" d="M262.2,374.4c14.4,10.8,31.8,16.9,49.8,17.6c23.1,0.5,45.5-7.6,62.8-22.9L416,96h-8c-22.1,0-40-17.9-40-40V16
		h-32v40c0,22.1-17.9,40-40,40h-8L262.2,374.4z"/>
	<path class="st2" d="M129.8,376c3.9,23.8-2.6,48.1-17.8,66.7c-11.9,14-28.1,23.6-46.1,27.3L48,474l6.2-98l64.8-17.4L129.8,376z"/>
	<path class="st3" d="M285,96h-87.5C97.3,96,16,177.1,16,277.3c0,0.1,0,0.1,0,0.2v193.8c0,13.7,11.1,24.8,24.8,24.8
		c12.6,0,23.3-9.5,24.6-22.1C69.4,439.3,83.7,376,136,376h109c50.3,0,91-40.8,91-91V147c0-28.1-22.7-51-50.9-51
		C285.1,96,285,96,285,96z"/>
	<path class="st4" d="M285,96h-88c-25.5,0.1-50.7,5.5-74,16c-29.9,27.3-52,62-64,100.6l-7.4,23.5c-2.4,8-3.7,16.3-3.7,24.6
		c0,46,37.3,83.3,83.3,83.3h182.9c14.1-16.4,21.9-37.4,21.8-59V147C336,118.9,313.3,96,285,96C285.1,96,285.1,96,285,96z"/>
	<path class="st5" d="M285,96h-89c-10,5-19.8,10.2-29.3,15.1c-12.7,6-23.5,15.3-31.3,27c-8.1,13.3-11.8,28.7-10.6,44.2
		c2.5,20.7,12.5,39.8,28.2,53.6c26.1,25.2,42,13.8,72,40c20.6,18.1,19.4,29.3,38,37.2c16.8,7.3,36,6.7,52.4-1.6
		c10-6.3,17.4-16.2,20.6-27.6V147C336,118.9,313.3,96,285,96C285.1,96,285.1,96,285,96z"/>
	<path class="st1" d="M240,376c-22.1,0-40,17.9-40,40v80h-32v-80c0.1-20.8-15.8-38.2-36.6-40H240z"/>
	<path class="st4" d="M416,96h80v40c0,0,0,24.6-32.5,30.7c-8.7,1.4-15.1,8.9-15.1,17.8c0.6,38.4-1.2,133.6-28.9,177
		c-6.1,9.2-16.5,14.7-27.5,14.6h-0.6c-12.9,0-23.4-10.4-23.4-23.4V144C368,117.5,389.5,96,416,96L416,96z"/>
	<path class="st6" d="M144,368h-3.9c-28.7,0-52-23.2-52.1-51.9c0-0.1,0-0.1,0-0.2V312c0-4.4-3.6-8-8-8s-8,3.6-8,8v3.9
		c-0.1,28.5,17.5,54,44.2,64c6.3-2.5,13-3.8,19.8-3.9h8V368z"/>
	<path class="st6" d="M284.2,249.2c-7.4-4.5-15.1-8.5-23-11.8c4.7-12.5,5.6-26.2,2.6-39.2c-0.6-2.5-1.4-5-2.3-7.4
		c8.5-6.5,18.3-11.1,28.7-13.5c3.9-1.1,6.4-4.9,5.8-8.9c-0.6-4.4-4.7-7.4-9-6.8c-0.3,0-0.6,0.1-0.9,0.2c-11.5,2.8-22.3,7.8-32,14.6
		c-5-7.3-11.3-13.6-18.6-18.7c-3.9-2.1-8.7-0.7-10.9,3.1c-1.8,3.3-1.1,7.4,1.8,9.9c10.7,7.4,18.4,18.5,21.6,31.1
		c2.3,10,1.6,20.5-2,30.2c-19.7-6.1-40.3-8.8-60.9-8c-10.8-3.5-20.1-10.6-26.3-20.2c-2.7-4.2-4.6-8.8-5.7-13.7c-1-4.3-5.3-7-9.6-6
		s-7,5.3-6,9.6l0,0c4.8,20,19.2,36.3,38.5,43.6c-1.1,11-4.2,23-11.8,27.8c-3.5,1.9-7.3,2.8-11.3,2.8c-6.8,0.4-13.6,2-19.8,4.7
		c-9.3,4.4-17.2,11.3-23,19.8c-2.6,3.6-1.7,8.6,1.9,11.2c0.1,0.1,0.3,0.2,0.4,0.3c3.6,1.9,8,0.9,10.3-2.4
		c4.1-6.3,9.9-11.3,16.6-14.6c4.6-2,9.6-3.1,14.6-3.4c6.4-0.2,12.7-1.9,18.2-5.1c10.6-6.6,17.1-19.8,19.1-39
		c29.8-0.4,59,7.6,84.5,23c20.4,12.5,37.6,29.4,50.5,49.6l3.5,5.4c2.6-6.6,4.3-13.5,5.3-20.6C321.6,277.7,304.2,261.5,284.2,249.2z"
		/>
	<g>
		<path class="st7" d="M188.6,233.5c4.1-0.8,8.3-0.9,12.5-0.4c4.6,0,9.2,0.6,13.8,1.1c9.2,1.2,18.2,2.9,27.1,5.4
			c2.2,0.6,4.5-0.8,5-3c0.6-2.2-0.8-4.5-3-5c-9.6-2.5-19.3-4.4-29.2-5.6c-5-0.6-9.9-1-14.9-1.1c-4.5-0.5-9.1-0.3-13.6,0.7
			C181.5,227.1,183.6,234.9,188.6,233.5L188.6,233.5z"/>
		<path class="st7" d="M253,196.2c2.2,5.3,3.2,11.1,3,16.9c0,6.4-0.9,12.8-2.6,19c-0.6,2.2,0.8,4.5,3,5c2.2,0.6,4.5-0.8,5-3
			c1.9-7.1,2.8-14.4,2.6-21.8c0.1-7-1.3-13.9-4.1-20.3c-1.1-1.9-3.5-2.5-5.4-1.4C252.6,191.7,251.9,194.2,253,196.2L253,196.2z"/>
		<path class="st7" d="M284.6,163.8c-9.9,3.5-19.4,7.8-28.6,13c-1.9,1.1-2.5,3.6-1.4,5.5c1.1,1.9,3.5,2.5,5.4,1.4
			c8.5-4.8,17.4-8.9,26.6-12.2c2.2-0.6,3.5-2.8,3-5c-0.6-2.2-2.8-3.5-5-3L284.6,163.8z"/>
		<path class="st7" d="M261.5,248c25.8,11,48,29,64,52.1c2.9,4.2,9.8,0,6.9-4c-16.6-24.2-39.6-43.3-66.5-55c-4.6-2-8.7,4.9-4,7
			L261.5,248z"/>
		<path class="st7" d="M77.5,314.8c0.5,12.9,4.6,25.4,11.8,36c7.1,11.7,18.3,20.2,31.4,24c5,1,7.2-6.6,2.2-8
			c-11.4-3.3-21.1-10.7-27.2-20.8c-6.2-9.3-9.8-20.1-10.2-31.3C85.5,309.6,77.5,309.6,77.5,314.8L77.5,314.8z"/>
		<path class="st7" d="M143.4,192.4c2.9,9,7.8,17.2,14.5,24c1.6,1.5,4.1,1.5,5.7,0c1.5-1.6,1.5-4.1,0-5.7c-1.4-1.5-2.9-3-4.2-4.6
			s0,0,0,0v-0.6l-0.9-1.2c-0.6-0.9-1.3-1.8-1.8-2.8s-2.1-3.6-3-5.4c0-0.5-0.4-0.9-0.6-1.4s0,0.5,0,0v-0.6c-0.4-1-0.8-2.1-1.1-3.1
			c-0.6-2.1-2.8-3.4-4.9-2.8c-2.1,0.6-3.4,2.8-2.8,5L143.4,192.4z"/>
		<path class="st7" d="M166.6,265.9c-4.1,2.3-8.6,3.8-13.3,4.5c-5,1.1-10.1,1.5-15,2.6c-4.4,1.3-8.5,3.3-12.2,6
			c-4,2.6-7.5,5.9-10.2,9.8c-2.9,4.3,4.1,8,6.9,4c2.5-3.3,5.7-6,9.4-8c3.5-2.5,7.6-4.2,11.8-4.9c4.6-0.6,9.2-1.5,13.8-2.6
			c4.6-0.8,9-2.4,13-4.7c1.8-1.2,2.4-3.5,1.4-5.4c-1.1-1.9-3.6-2.5-5.5-1.4L166.6,265.9z"/>
	</g>
	<path class="st5" d="M368,144v208.6v1.6c12.8,0,30-12.2,40-26.2c22.9-32,19.4-91.3,13-120.6c-1.4-6.2-5.8-24.5,3.7-37
		c3.3-3.7,7.2-6.8,11.4-9.4c22.4-16,25.4-16,29.8-20.3c10.5-12.3,13.9-29.3,9-44.7h-59C389.5,96,368,117.5,368,144L368,144z"/>
	<path class="st8" d="M240,376h-93.9c20.7,1.8,36.6,19.2,36.6,40v67.4c-0.1,6.9,5.4,12.6,12.3,12.6c0.1,0,0.1,0,0.2,0h4.9v-80
		C200,393.9,217.9,376,240,376z"/>
	<path class="st8" d="M368,56V16h-25.3c0,9.5,7.5,24.9,6,61.8c-0.4,9.4-1.4,20.5,5,25s14.3,0.5,25.4-3.1c6.5-2,13.1-3.7,19.8-5
		C380.9,90.6,368.1,74.5,368,56L368,56z"/>
	
		<ellipse transform="matrix(0.6287 -0.7776 0.7776 0.6287 8.7573 279.6925)" class="st9" cx="297.3" cy="130.7" rx="15.4" ry="30.9"/>
	
		<ellipse transform="matrix(0.6287 -0.7776 0.7776 0.6287 8.6511 242.6156)" class="st9" cx="258.4" cy="112.2" rx="5.6" ry="11.3"/>
</g>
</svg>
