<?xml version="1.0" encoding="utf-8"?>
<!-- Generator: Adobe Illustrator 27.8.1, SVG Export Plug-In . SVG Version: 6.00 Build 0)  -->
<svg version="1.1" id="Layer_1" xmlns="http://www.w3.org/2000/svg" xmlns:xlink="http://www.w3.org/1999/xlink" x="0px" y="0px"
	 viewBox="0 0 512 512" style="enable-background:new 0 0 512 512;" xml:space="preserve">
<style type="text/css">
	.st0{fill:#49B1F7;}
	.st1{fill:#F55648;}
	.st2{fill:#C7463B;}
	.st3{fill:#A23930;}
	.st4{fill:#FBB540;}
	.st5{fill:#EA9D2D;}
</style>
<circle class="st0" cx="256" cy="256" r="245"/>
<g id="flat">
	<circle class="st1" cx="256" cy="256" r="210"/>
	<circle class="st2" cx="256" cy="256" r="181"/>
	<circle class="st3" cx="256" cy="256" r="159.3"/>
	<g>
		<circle class="st4" cx="256" cy="118.4" r="21.7"/>
		<circle class="st4" cx="212.6" cy="125.7" r="21.7"/>
		<circle class="st4" cx="169.1" cy="154.6" r="21.7"/>
		<circle class="st4" cx="212.6" cy="169.1" r="21.7"/>
	</g>
	<circle class="st5" cx="140.1" cy="190.8" r="21.7"/>
	<circle class="st4" cx="125.7" cy="234.3" r="21.7"/>
	<circle class="st5" cx="125.7" cy="277.7" r="21.7"/>
	<circle class="st4" cx="132.9" cy="321.2" r="21.7"/>
	<circle class="st4" cx="161.9" cy="357.4" r="21.7"/>
	<circle class="st4" cx="205.3" cy="379.1" r="21.7"/>
	<circle class="st5" cx="248.8" cy="393.6" r="21.7"/>
	<circle class="st4" cx="241.5" cy="350.1" r="21.7"/>
	<circle class="st4" cx="292.2" cy="386.3" r="21.7"/>
	<circle class="st5" cx="335.7" cy="364.6" r="21.7"/>
	<circle class="st5" cx="285" cy="342.9" r="21.7"/>
	<circle class="st4" cx="357.4" cy="263.2" r="21.7"/>
	<circle class="st4" cx="371.9" cy="335.7" r="21.7"/>
	<circle class="st5" cx="386.3" cy="292.2" r="21.7"/>
	<circle class="st4" cx="393.6" cy="248.8" r="21.7"/>
	<circle class="st5" cx="379.1" cy="205.3" r="21.7"/>
	<circle class="st5" cx="357.4" cy="161.9" r="21.7"/>
	<circle class="st4" cx="321.2" cy="140.1" r="21.7"/>
	<circle class="st4" cx="292.2" cy="169.1" r="21.7"/>
	<circle class="st4" cx="335.7" cy="198.1" r="21.7"/>
	<circle class="st5" cx="198.1" cy="335.7" r="21.7"/>
	<circle class="st4" cx="234.3" cy="306.7" r="21.7"/>
	<circle class="st4" cx="248.8" cy="198.1" r="21.7"/>
	<circle class="st5" cx="292.2" cy="212.6" r="21.7"/>
	<circle class="st5" cx="248.8" cy="154.6" r="21.7"/>
</g>
</svg>
