<?xml version="1.0" encoding="utf-8"?>
<!-- Generator: Adobe Illustrator 27.8.1, SVG Export Plug-In . SVG Version: 6.00 Build 0)  -->
<svg version="1.1" id="Layer_1" xmlns="http://www.w3.org/2000/svg" xmlns:xlink="http://www.w3.org/1999/xlink" x="0px" y="0px"
	 viewBox="0 0 512 512" style="enable-background:new 0 0 512 512;" xml:space="preserve">
<style type="text/css">
	.st0{fill:#49B1F7;}
	.st1{fill:#C2313C;}
	.st2{fill:#1D4D82;}
	.st3{fill:#2963A3;}
	.st4{fill:#AD313B;}
	.st5{fill:#9C2C35;}
	.st6{fill:#DB3744;}
	.st7{fill:#7A2329;}
	.st8{fill:#1F538C;}
</style>
<circle class="st0" cx="256" cy="256" r="245"/>
<g id="_08-Kidney">
	<path class="st1" d="M333,311.9c0.1-0.4,0.2-0.7,0.4-1c-6.3-9.4-10.5-19.9-12.6-31c-1-5.2-1.5-10.5-1.5-15.8
		c0-11.4,2.3-22.6,6.7-33.1c-3.1-4.7-5.7-9.7-7.8-14.9c-4.1-10.2-6.3-21-6.2-32c0-44.2,31.2-80,72-80h8c0,0,112,0,112,152
		c0,96.2-33.8,137.2-62.8,154.8c-11.1,8-24.3,12.5-38,13c-1.7,0.2-2.6,0.2-2.6,0.2c-40.8,0-73.8-35.8-73.8-80
		C326.8,333,328.9,322.1,333,311.9L333,311.9z"/>
	<path class="st1" d="M192.2,256c0.2,2.6,0.4,5.3,0.4,8c-0.1,16.7-5,32.9-14.1,46.9c4.4,10.5,6.7,21.7,6.6,33.1
		c0,44.2-33,80-73.8,80c0,0-0.9,0-2.6-0.2c-13.7-0.5-26.9-5-38-13C41.8,393.2,8,352.2,8,256c0-152,112-152,112-152h8
		c40.8,0,72,35.8,72,80c0,11-2.1,21.8-6.2,32c-2.1,5.2-4.7,10.2-7.8,14.9C189.3,238.9,191.4,247.4,192.2,256L192.2,256z"/>
	<path class="st2" d="M224,176v32c0,0-7.6,7.6-30.2,8c4.1-10.2,6.3-21,6.2-32C208.7,184.4,217.3,181.6,224,176z"/>
	<path class="st3" d="M288,300.4V456c0,4.4-3.6,8-8,8h-16c-4.4,0-8-3.6-8-8V272C264.2,284,275.1,293.7,288,300.4z"/>
	<path class="st3" d="M288,208v56l-1.3,1.6c-11.7-9.7-22.1-21-30.7-33.6V56c0-4.4,3.6-8,8-8h16c4.4,0,8,3.6,8,8v112
		c4.7,9.1,13.8,15.2,24,16c0,11,2.1,21.8,6.2,32C295.6,215.6,288,208,288,208z"/>
	<path class="st4" d="M224,272c-8.3,9.1-19.7,14.8-32,16h-2.9c2.4-7.8,3.6-15.9,3.5-24c0-2.7-0.2-5.4-0.4-8
		c14.5-0.8,27-10.3,31.8-24V56c0-4.4,3.6-8,8-8h16c4.4,0,8,3.6,8,8v176c8.7,12.6,19,23.9,30.7,33.6c9.2,8.4,20.9,13.4,33.3,14.4
		l0.9-0.2c2,11.1,6.3,21.7,12.6,31c-0.2,0.3-0.3,0.7-0.4,1c-15.7-0.2-31.2-4.2-45-11.5c-12.9-6.7-23.8-16.4-32-28.4v184
		c0,4.4-3.6,8-8,8h-16c-4.4,0-8-3.6-8-8V272z"/>
	<path class="st5" d="M360,344c-0.2-13.7,2.5-27.4,8-40c0,0-24-8-24-40s16-40,16-40s-16-16-16-56s48-64,48-64h-8
		c-40.8,0-72,35.8-72,80c0,11,2.1,21.8,6.2,32c2.1,5.2,4.7,10.2,7.8,14.9c-4.4,10.5-6.7,21.7-6.7,33.1c0,5.3,0.5,10.6,1.5,15.8
		c2,11.1,6.3,21.7,12.6,31c-0.2,0.3-0.3,0.7-0.4,1c-4.1,10.2-6.3,21.1-6.2,32.1c0,44.2,33,80,73.8,80c0,0,0.9,0,2.6-0.2
		c13.7-0.5,26.9-5,38-13c22.2-13.5,47.1-40.8,57.7-95.9C473.3,413.4,360,400.8,360,344z"/>
	<g>
		<path class="st6" d="M390.8,128.8c-3.7,0.7-7.2,2.4-10,4.9c-4.5,5-6,12.1-4,18.5c2,6.3,5.4,12.1,9.9,16.9
			c12.5,13.9,26.2,26.5,41.1,37.8c6.8,6,14.4,11.1,22.6,15.1c3.8,2.1,8.4,2.4,12.5,0.9c1.8-1.1,3.4-2.6,4.5-4.4
			c7.3-10.7,4.9-25.5-0.2-37.5c-7.1-16.5-18.7-30.6-33.4-40.8C421.5,131.1,406.1,126.9,390.8,128.8L390.8,128.8z"/>
		<path class="st6" d="M456,265.4c-0.9,7.5,2.1,14.9,7.9,19.6c2.4,1.4,5,2.3,7.7,2.7c1,0.3,2,0.3,3,0c0.8-0.4,1.5-1,2-1.7
			c7.8-11.5,11.8-25.2,11.5-39.1c0.4-8.8-4.7-28.2-18.6-21.7C457.9,230.7,456.1,255,456,265.4L456,265.4z"/>
		<path class="st6" d="M116,128.8c3.7,0.7,7.2,2.4,10,4.9c4.5,5,6,12.1,4,18.5c-2,6.3-5.4,12.1-9.9,16.9
			c-12.5,13.9-26.2,26.5-41.1,37.8c-6.8,6-14.4,11.1-22.6,15.1c-3.8,2.1-8.4,2.4-12.5,0.9c-1.8-1.1-3.4-2.6-4.5-4.4
			c-7.3-10.7-4.9-25.5,0.2-37.5c7.1-16.5,18.7-30.6,33.4-40.8C85.4,131.1,100.8,126.9,116,128.8z"/>
		<path class="st6" d="M50.8,265.4c0.9,7.5-2.1,14.9-7.9,19.6c-2.4,1.4-5,2.3-7.7,2.7c-1,0.3-2,0.3-3,0c-0.8-0.4-1.5-1-2-1.7
			c-7.8-11.5-11.8-25.2-11.5-39.1c-0.4-8.8,4.7-28.2,18.6-21.7C49,230.7,50.8,255,50.8,265.4L50.8,265.4z"/>
	</g>
	<path class="st5" d="M200,184c0-44.2-31.2-80-72-80h-3.6c14.2,10.6,35.6,31.9,35.6,64c-0.2,19.8-5.8,39.1-16,56c0,0,16,8,16,40
		s-24,40-24,40s16,32,8,56c-7.5,22.6-78.6,66.3-127-28.1c12,44,34,66.9,53.8,78.9c11.1,8,24.3,12.5,38,13c1.7,0.2,2.6,0.2,2.6,0.2
		c40.8,0,73.8-35.8,73.8-80c0-11.4-2.2-22.6-6.6-33.1c9.1-13.9,14-30.2,14.1-46.9c0-2.7-0.2-5.4-0.4-8c-0.8-8.6-2.9-17.1-6.3-25.1
		c3.1-4.7,5.7-9.7,7.8-14.9C197.9,205.8,200,195,200,184z"/>
	<path class="st7" d="M210.3,270.5c-4.2,1.2-8.7-1.2-9.9-5.4c-0.2-0.7-0.3-1.5-0.3-2.3V255c-2.5,0.6-5.1,1-7.8,1
		c0.2,2.6,0.4,5.3,0.4,8c0,8.1-1.2,16.2-3.5,24h2.9c12.3-1.2,23.7-6.9,32-16v-16C224,264.8,216.8,268.7,210.3,270.5z"/>
	<path class="st7" d="M320.9,279.8L320,280c-3.9-0.1-7.8-0.7-11.5-2c0,2,0.1,4.1,0.3,6.1c0.5,4.4-2.7,8.3-7.1,8.7
		c-1.1,0.1-2.2,0-3.3-0.3c-14.8-4.9-37.2-15.5-42.4-36.5v16c8.2,12,19.1,21.7,32,28.4c13.9,7.4,29.3,11.3,45,11.5l0.5-0.9
		C327.2,301.6,322.9,291,320.9,279.8L320.9,279.8z"/>
	<path class="st7" d="M232,48h16c4.4,0,8,3.6,8,8l0,0c0,4.4-3.6,8-8,8h-16c-4.4,0-8-3.6-8-8l0,0C224,51.6,227.6,48,232,48z"/>
	<path class="st8" d="M264,48h16c4.4,0,8,3.6,8,8l0,0c0,4.4-3.6,8-8,8h-16c-4.4,0-8-3.6-8-8l0,0C256,51.6,259.6,48,264,48z"/>
	<path class="st6" d="M248,72L248,72c4.4,0,8,3.6,8,8v16c0,4.4-3.6,8-8,8l0,0c-4.4,0-8-3.6-8-8V80C240,75.6,243.6,72,248,72z"/>
	<path class="st6" d="M248,112L248,112c4.4,0,8,3.6,8,8v104c0,4.4-3.6,8-8,8l0,0c-4.4,0-8-3.6-8-8V120C240,115.6,243.6,112,248,112z
		"/>
	<path class="st6" d="M248,288L248,288c4.4,0,8,3.6,8,8v104c0,4.4-3.6,8-8,8l0,0c-4.4,0-8-3.6-8-8V296C240,291.6,243.6,288,248,288z
		"/>
	<path class="st2" d="M272,448V312c3.1,5.9,9.3,9.7,16,9.9v-21.5c-12.9-6.7-23.8-16.4-32-28.4v184c0,4.4,3.6,8,8,8h16
		c1.2,0,2.3-0.3,3.3-0.8C276.6,461.2,272,455,272,448z"/>
	<path class="st2" d="M286.7,265.6l1.3-1.6v-56c0,0,7.6,7.6,30.2,8c-4.1-10.2-6.3-21-6.2-32c-5.9-0.1-11.6-2.3-16-6.3V188
		c0,6.6-5.4,12-12,12s-12-5.4-12-12V48h-8c-4.4,0-8,3.6-8,8v176C264.7,244.6,275,255.9,286.7,265.6z"/>
</g>
</svg>
