<?xml version="1.0" encoding="utf-8"?>
<!-- Generator: Adobe Illustrator 27.8.1, SVG Export Plug-In . SVG Version: 6.00 Build 0)  -->
<svg version="1.1" id="Layer_1" xmlns="http://www.w3.org/2000/svg" xmlns:xlink="http://www.w3.org/1999/xlink" x="0px" y="0px"
	 viewBox="0 0 512 512" style="enable-background:new 0 0 512 512;" xml:space="preserve">
<style type="text/css">
	.st0{display:none;}
	.st1{display:inline;fill:#49B1F7;}
	.st2{display:inline;}
	.st3{clip-path:url(#SVGID_00000165948231814224102830000011889475540273554607_);}
	.st4{fill:#E3E8F6;}
	.st5{fill:#F3A845;}
	.st6{fill:#EECC61;}
	.st7{fill:#FCE79C;}
	.st8{fill:#D24034;}
	.st9{fill:#AA2B24;}
	.st10{clip-path:url(#SVGID_00000051382616226519879040000003532293388815861942_);fill:#AA2B24;}
	.st11{fill:#49B1F7;}
	.st12{fill:#DEEEFF;}
	.st13{fill:#D3DCFB;}
	.st14{fill:#FF4155;}
	.st15{fill:#E80054;}
	.st16{fill:#3C58A0;}
	.st17{fill:#2A428C;}
	.st18{fill:#6289CC;}
	.st19{fill:#4B6BB2;}
	.st20{fill:#BEC8F7;}
	.st21{fill:#FF7186;}
	.st22{fill:#F9A0B1;}
	.st23{fill:#F8F6F6;}
	.st24{fill:#E8B800;}
	.st25{fill:#D7AA02;}
	.st26{fill:#FAC600;}
	.st27{fill:#FFFFFF;}
	.st28{fill:#9C9C9C;}
	.st29{fill:#838383;}
	.st30{fill:#D8ECFE;}
	.st31{fill:#B3DAFE;}
	.st32{fill:#FE646F;}
	.st33{fill:#FD4755;}
	.st34{fill:#0182FC;}
	.st35{fill:#CECECE;}
	.st36{fill:#EBEBEB;}
	.st37{fill:#FE9901;}
	.st38{fill:#FB8801;}
	.st39{fill:#60B7FF;}
	.st40{fill:#26A6FE;}
	.st41{fill:#22B27F;}
	.st42{fill:#09A76D;}
	.st43{fill:#D01144;}
</style>
<g id="Layer_3" class="st0">
	<circle class="st1" cx="256" cy="256" r="245"/>
	<g class="st2">
		<g>
			<g>
				<defs>
					<path id="SVGID_1_" d="M512,0v376c0,0-77.1,49.4-96.8,66.3C372.4,478.9,316.8,501,256,501c-59.2,0-113.5-21-155.8-55.9
						C78.7,427.3,0,380.6,0,380.6V0h251.8H512z"/>
				</defs>
				<clipPath id="SVGID_00000098903497833308587530000011856684519841825718_">
					<use xlink:href="#SVGID_1_"  style="overflow:visible;"/>
				</clipPath>
				<g style="clip-path:url(#SVGID_00000098903497833308587530000011856684519841825718_);">
					<path class="st4" d="M104,164v288c0,17.7,14.3,32,32,32h240c17.7,0,32-14.3,32-32V164H104z"/>
					<path class="st5" d="M104,228h304v224c0,17.7-14.3,32-32,32H136c-17.7,0-32-14.3-32-32V228z"/>
					<path class="st6" d="M408,452V228H105.6C120,372,230.2,484,364,484c1.6,0,6.4,0,12.6-0.1C394,483.6,408,469.4,408,452z"/>
					<path class="st6" d="M104,276h176v160H104V276z"/>
					<path class="st7" d="M220.4,436H280V276H114.3C130.3,339.9,167.8,396.3,220.4,436z"/>
					<path class="st8" d="M88,68h336v96H88V68z"/>
					<path class="st9" d="M136,68L136,68c4.4,0,8,3.6,8,8v80c0,4.4-3.6,8-8,8l0,0c-4.4,0-8-3.6-8-8V76C128,71.6,131.6,68,136,68z"/>
					<path class="st9" d="M184,68L184,68c4.4,0,8,3.6,8,8v80c0,4.4-3.6,8-8,8l0,0c-4.4,0-8-3.6-8-8V76C176,71.6,179.6,68,184,68z"/>
					<path class="st9" d="M232,68L232,68c4.4,0,8,3.6,8,8v80c0,4.4-3.6,8-8,8l0,0c-4.4,0-8-3.6-8-8V76C224,71.6,227.6,68,232,68z"/>
					<path class="st9" d="M280,68L280,68c4.4,0,8,3.6,8,8v80c0,4.4-3.6,8-8,8l0,0c-4.4,0-8-3.6-8-8V76C272,71.6,275.6,68,280,68z"/>
					<path class="st9" d="M328,68L328,68c4.4,0,8,3.6,8,8v80c0,4.4-3.6,8-8,8l0,0c-4.4,0-8-3.6-8-8V76C320,71.6,323.6,68,328,68z"/>
					<path class="st9" d="M376,68L376,68c4.4,0,8,3.6,8,8v80c0,4.4-3.6,8-8,8l0,0c-4.4,0-8-3.6-8-8V76C368,71.6,371.6,68,376,68z"/>
					<path class="st4" d="M136,484v8c0,13.3,10.7,24,24,24h192c13.3,0,24-10.7,24-24v-8H136z"/>
					<g>
						<path class="st5" d="M128,348h128v16H128V348z"/>
						<path class="st5" d="M128,316h128v16H128V316z"/>
						<path class="st5" d="M128,380h96v16h-96V380z"/>
						<path class="st5" d="M240,380h16v16h-16V380z"/>
						<path class="st5" d="M336,260h16v16h-16V260z"/>
						<path class="st5" d="M304,340h16v16h-16V340z"/>
						<path class="st5" d="M368,396h16v16h-16V396z"/>
						<path class="st5" d="M304,436h16v16h-16V436z"/>
					</g>
				</g>
			</g>
		</g>
		<g>
			<g>
				<defs>
					<path id="SVGID_00000091728733009790971210000002180537124343793550_" d="M512,0v376c0,0-77.1,49.4-96.8,66.3
						C372.4,478.9,316.8,501,256,501c-59.2,0-113.5-21-155.8-55.9C78.7,427.3,0,380.6,0,380.6V0h251.8H512z"/>
				</defs>
				<clipPath id="SVGID_00000069374861030673418600000016890055977146927543_">
					<use xlink:href="#SVGID_00000091728733009790971210000002180537124343793550_"  style="overflow:visible;"/>
				</clipPath>
				<path style="clip-path:url(#SVGID_00000069374861030673418600000016890055977146927543_);fill:#AA2B24;" d="M376,36H136l-32,32
					h304L376,36z"/>
			</g>
		</g>
	</g>
</g>
<g id="Layer_2_00000106854411183070756830000010032575260034250886_" class="st0">
	<g class="st2">
		<path class="st11" d="M140.7,472.5c34.4,18.4,73.6,28.8,115.3,28.8c43.7,0,84.8-11.5,120.3-31.5l91.4-90
			c21.2-36.2,33.3-78.4,33.3-123.4c0-135.3-109.7-245-245-245S11,121,11,256.3c0,53.3,17,102.7,46,142.9L140.7,472.5z"/>
		<path class="st12" d="M50.4,130h94v134.6h-94C50.4,264.6,50.4,130,50.4,130z"/>
		<path class="st13" d="M50.4,264.6h33.2V188c0-13,10.7-23.7,23.7-23.7h37.1V130h-94C50.4,130,50.4,264.6,50.4,264.6z"/>
		<path class="st14" d="M50.4,389.5c22.6,34.7,53.7,63.4,90.3,83c2.4-5.6,3.7-11.8,3.7-18.2V262.5h-94
			C50.4,262.5,50.4,389.5,50.4,389.5z"/>
		<path class="st15" d="M50.4,262.5v127.1c9.6,14.8,20.8,28.5,33.2,40.8c0-0.5,0-0.9,0-1.4V262.5H50.4z"/>
		<path class="st15" d="M140.7,472.5c2.4-5.6,3.7-11.8,3.7-18.2v-1.7h-35C119.3,460,129.8,466.7,140.7,472.5z"/>
		<path class="st16" d="M153.4,51.1h-72c0,0-9.9,6.4,0,16.3v47.3c0,0-9.1,7.2,0,16.3h72c6,0,10.8-4.8,10.8-10.8V61.9
			C164.2,55.9,159.3,51.1,153.4,51.1L153.4,51.1z"/>
		<path class="st17" d="M83.6,51.1H41.4c-6,0-10.8,4.8-10.8,10.8v58.2c0,6,4.8,10.8,10.8,10.8h42.2c-9.1-9.1,0-16.3,0-16.3V67.4
			C73.6,57.4,83.6,51.1,83.6,51.1L83.6,51.1z"/>
		<g>
			<path class="st18" d="M111.2,114.6c-4.1,0-7.5-3.3-7.5-7.5V74.8c0-4.1,3.3-7.5,7.5-7.5s7.5,3.3,7.5,7.5v32.3
				C118.7,111.3,115.3,114.6,111.2,114.6z"/>
		</g>
		<g>
			<path class="st18" d="M138.9,114.6c-4.1,0-7.5-3.3-7.5-7.5V74.8c0-4.1,3.4-7.5,7.5-7.5s7.5,3.3,7.5,7.5v32.3
				C146.3,111.3,143,114.6,138.9,114.6z"/>
		</g>
		<g>
			<path class="st19" d="M83.6,114.6c-4.1,0-7.5-3.3-7.5-7.5V74.8c0-4.1,3.3-7.5,7.5-7.5s7.5,3.3,7.5,7.5v32.3
				C91,111.3,87.7,114.6,83.6,114.6z"/>
		</g>
		<g>
			<path class="st19" d="M55.9,114.6c-4.1,0-7.5-3.3-7.5-7.5V74.8c0-4.1,3.3-7.5,7.5-7.5s7.5,3.3,7.5,7.5v32.3
				C63.4,111.3,60,114.6,55.9,114.6z"/>
		</g>
		<g>
			<path class="st20" d="M68.3,171.7H51.4c-4.1,0-7.5-3.4-7.5-7.5s3.3-7.5,7.5-7.5h16.8c4.1,0,7.5,3.4,7.5,7.5
				C75.8,168.4,72.4,171.7,68.3,171.7z"/>
		</g>
		<g>
			<path class="st20" d="M56.5,204.5h-5.1c-4.1,0-7.5-3.4-7.5-7.5s3.3-7.5,7.5-7.5h5.1c4.1,0,7.5,3.4,7.5,7.5S60.7,204.5,56.5,204.5
				z"/>
		</g>
		<g>
			<path class="st20" d="M56.5,237.2h-5.1c-4.1,0-7.5-3.4-7.5-7.5s3.3-7.5,7.5-7.5h5.1c4.1,0,7.5,3.4,7.5,7.5S60.7,237.2,56.5,237.2
				z"/>
		</g>
		<g>
			<path class="st21" d="M56.5,302.7h-5.1c-4.1,0-7.5-3.4-7.5-7.5s3.3-7.5,7.5-7.5h5.1c4.1,0,7.5,3.4,7.5,7.5
				C64,299.3,60.7,302.7,56.5,302.7z"/>
		</g>
		<g>
			<path class="st21" d="M56.5,335.4h-5.1c-4.1,0-7.5-3.4-7.5-7.5s3.3-7.5,7.5-7.5h5.1c4.1,0,7.5,3.4,7.5,7.5S60.7,335.4,56.5,335.4
				z"/>
		</g>
		<g>
			<path class="st22" d="M68.3,368.2H51.4c-4.1,0-7.5-3.4-7.5-7.5s3.3-7.5,7.5-7.5h16.8c4.1,0,7.5,3.4,7.5,7.5
				S72.4,368.2,68.3,368.2z"/>
		</g>
		<g>
			<path class="st21" d="M56.5,400.9h-5.1c-4.1,0-7.5-3.4-7.5-7.5s3.3-7.5,7.5-7.5h5.1c4.1,0,7.5,3.4,7.5,7.5
				C64,397.6,60.7,400.9,56.5,400.9z"/>
		</g>
		<g>
			<path class="st22" d="M68.3,270H51.4c-4.1,0-7.5-3.4-7.5-7.5s3.3-7.5,7.5-7.5h16.8c4.1,0,7.5,3.4,7.5,7.5S72.4,270,68.3,270z"/>
		</g>
		<path class="st21" d="M115.4,378.7c-5.8,0-10.5-4.7-10.5-10.5v-66.9c0-5.8,4.7-10.5,10.5-10.5s10.5,4.7,10.5,10.5v66.9
			C125.9,374,121.2,378.7,115.4,378.7z"/>
		<path class="st12" d="M212,130h94v134.6h-94V130z"/>
		<path class="st13" d="M212,264.6h33.2V188c0-13,10.7-23.7,23.7-23.7H306V130h-94V264.6z"/>
		<path class="st14" d="M212,262.5v191.8c0,26,21,47,47,47s47-21,47-47V262.5H212z"/>
		<path class="st15" d="M268.9,452.6c-13,0-23.7-10.7-23.7-23.7V262.5H212v191.8c0,26,21,47,47,47s47-21,47-47v-1.7L268.9,452.6z"/>
		<path class="st16" d="M315,51.1h-72c0,0-9.9,6.4,0,16.3v47.3c0,0-9.1,7.2,0,16.3h72c6,0,10.8-4.8,10.8-10.8V61.9
			C325.8,55.9,321,51.1,315,51.1z"/>
		<path class="st17" d="M245.2,51.1H203c-6,0-10.8,4.8-10.8,10.8v58.2c0,6,4.8,10.8,10.8,10.8h42.2c-9.1-9.1,0-16.3,0-16.3V67.4
			C235.2,57.4,245.2,51.1,245.2,51.1L245.2,51.1z"/>
		<g>
			<path class="st18" d="M272.8,114.6c-4.1,0-7.5-3.3-7.5-7.5V74.8c0-4.1,3.4-7.5,7.5-7.5s7.5,3.3,7.5,7.5v32.3
				C280.3,111.3,277,114.6,272.8,114.6z"/>
		</g>
		<g>
			<path class="st18" d="M300.5,114.6c-4.1,0-7.5-3.3-7.5-7.5V74.8c0-4.1,3.4-7.5,7.5-7.5s7.5,3.3,7.5,7.5v32.3
				C308,111.3,304.6,114.6,300.5,114.6z"/>
		</g>
		<g>
			<path class="st19" d="M245.2,114.6c-4.1,0-7.5-3.3-7.5-7.5V74.8c0-4.1,3.4-7.5,7.5-7.5s7.5,3.3,7.5,7.5v32.3
				C252.7,111.3,249.3,114.6,245.2,114.6z"/>
		</g>
		<g>
			<path class="st19" d="M217.5,114.6c-4.1,0-7.5-3.3-7.5-7.5V74.8c0-4.1,3.4-7.5,7.5-7.5s7.5,3.3,7.5,7.5v32.3
				C225,111.3,221.7,114.6,217.5,114.6z"/>
		</g>
		<g>
			<path class="st20" d="M229.9,171.7H213c-4.1,0-7.5-3.4-7.5-7.5s3.4-7.5,7.5-7.5h16.9c4.1,0,7.5,3.4,7.5,7.5
				C237.4,168.4,234.1,171.7,229.9,171.7z"/>
		</g>
		<g>
			<path class="st20" d="M218.2,204.5h-5.1c-4.1,0-7.5-3.4-7.5-7.5s3.4-7.5,7.5-7.5h5.1c4.1,0,7.5,3.4,7.5,7.5
				S222.3,204.5,218.2,204.5z"/>
		</g>
		<g>
			<path class="st20" d="M218.2,237.2h-5.1c-4.1,0-7.5-3.4-7.5-7.5s3.4-7.5,7.5-7.5h5.1c4.1,0,7.5,3.4,7.5,7.5
				S222.3,237.2,218.2,237.2z"/>
		</g>
		<g>
			<path class="st21" d="M218.2,302.7h-5.1c-4.1,0-7.5-3.4-7.5-7.5s3.4-7.5,7.5-7.5h5.1c4.1,0,7.5,3.4,7.5,7.5
				S222.3,302.7,218.2,302.7z"/>
		</g>
		<g>
			<path class="st21" d="M218.2,335.4h-5.1c-4.1,0-7.5-3.4-7.5-7.5s3.4-7.5,7.5-7.5h5.1c4.1,0,7.5,3.4,7.5,7.5
				S222.3,335.4,218.2,335.4z"/>
		</g>
		<g>
			<path class="st22" d="M229.9,368.2H213c-4.1,0-7.5-3.4-7.5-7.5s3.4-7.5,7.5-7.5h16.9c4.1,0,7.5,3.4,7.5,7.5
				S234.1,368.2,229.9,368.2z"/>
		</g>
		<g>
			<path class="st21" d="M218.2,400.9h-5.1c-4.1,0-7.5-3.4-7.5-7.5s3.4-7.5,7.5-7.5h5.1c4.1,0,7.5,3.4,7.5,7.5
				S222.3,400.9,218.2,400.9z"/>
		</g>
		<g>
			<path class="st21" d="M218.2,433.6h-5.1c-4.1,0-7.5-3.4-7.5-7.5s3.4-7.5,7.5-7.5h5.1c4.1,0,7.5,3.4,7.5,7.5
				S222.3,433.6,218.2,433.6z"/>
		</g>
		<g>
			<path class="st22" d="M229.9,270H213c-4.1,0-7.5-3.4-7.5-7.5s3.4-7.5,7.5-7.5h16.9c4.1,0,7.5,3.4,7.5,7.5S234.1,270,229.9,270z"
				/>
		</g>
		<path class="st21" d="M277.1,378.7c-5.8,0-10.5-4.7-10.5-10.5v-66.9c0-5.8,4.7-10.5,10.5-10.5s10.5,4.7,10.5,10.5v66.9
			C287.5,374,282.8,378.7,277.1,378.7z"/>
		<path class="st12" d="M373.7,130h94v134.6h-94V130z"/>
		<path class="st13" d="M373.7,264.6h33.2V188c0-13,10.7-23.7,23.7-23.7h37.1v-36.4h-94L373.7,264.6L373.7,264.6z"/>
		<path class="st14" d="M467.7,379.7V262.5h-94v191.8c0,5.4,0.9,10.6,2.6,15.5C414.1,448.4,445.7,417.2,467.7,379.7L467.7,379.7z"/>
		<path class="st15" d="M406.8,428.9V262.5h-33.2v191.8c0,5.4,0.9,10.6,2.6,15.5c12.9-7.3,25.1-15.8,36.5-25.2
			C409.1,440.4,406.8,434.9,406.8,428.9L406.8,428.9z"/>
		<g>
			<path class="st20" d="M391.6,171.7h-16.9c-4.1,0-7.5-3.4-7.5-7.5s3.4-7.5,7.5-7.5h16.9c4.1,0,7.5,3.4,7.5,7.5
				C399.1,168.4,395.7,171.7,391.6,171.7z"/>
		</g>
		<g>
			<path class="st20" d="M379.8,204.5h-5.1c-4.1,0-7.5-3.4-7.5-7.5s3.4-7.5,7.5-7.5h5.1c4.1,0,7.5,3.4,7.5,7.5
				S384,204.5,379.8,204.5z"/>
		</g>
		<g>
			<path class="st20" d="M379.8,237.2h-5.1c-4.1,0-7.5-3.4-7.5-7.5s3.4-7.5,7.5-7.5h5.1c4.1,0,7.5,3.4,7.5,7.5
				S384,237.2,379.8,237.2z"/>
		</g>
		<g>
			<path class="st21" d="M379.8,302.7h-5.1c-4.1,0-7.5-3.4-7.5-7.5s3.4-7.5,7.5-7.5h5.1c4.1,0,7.5,3.4,7.5,7.5
				S384,302.7,379.8,302.7z"/>
		</g>
		<g>
			<path class="st21" d="M379.8,335.4h-5.1c-4.1,0-7.5-3.4-7.5-7.5s3.4-7.5,7.5-7.5h5.1c4.1,0,7.5,3.4,7.5,7.5
				S384,335.4,379.8,335.4z"/>
		</g>
		<g>
			<path class="st22" d="M391.6,368.2h-16.9c-4.1,0-7.5-3.4-7.5-7.5s3.4-7.5,7.5-7.5h16.9c4.1,0,7.5,3.4,7.5,7.5
				C399.1,364.8,395.7,368.2,391.6,368.2z"/>
		</g>
		<g>
			<path class="st21" d="M379.8,400.9h-5.1c-4.1,0-7.5-3.4-7.5-7.5s3.4-7.5,7.5-7.5h5.1c4.1,0,7.5,3.4,7.5,7.5
				S384,400.9,379.8,400.9z"/>
		</g>
		<g>
			<path class="st21" d="M379.8,433.6h-5.1c-4.1,0-7.5-3.4-7.5-7.5s3.4-7.5,7.5-7.5h5.1c4.1,0,7.5,3.4,7.5,7.5
				S384,433.6,379.8,433.6z"/>
		</g>
		<g>
			<path class="st22" d="M391.6,270h-16.9c-4.1,0-7.5-3.4-7.5-7.5s3.4-7.5,7.5-7.5h16.9c4.1,0,7.5,3.4,7.5,7.5S395.7,270,391.6,270z
				"/>
		</g>
		<path class="st21" d="M438.7,378.7c-5.8,0-10.5-4.7-10.5-10.5v-66.9c0-5.8,4.7-10.5,10.5-10.5s10.5,4.7,10.5,10.5v66.9
			C449.2,374,444.5,378.7,438.7,378.7z"/>
		<path class="st12" d="M469.7,106.4H414c-4.2,2.2-7.1,6.6-7.1,11.8c0,5.1,2.9,9.5,7.1,11.8h55.7c6.5,0,11.8-5.3,11.8-11.8
			C481.4,111.6,476.2,106.4,469.7,106.4z"/>
		<path class="st13" d="M414.9,106.4h-43.3c-6.5,0-11.8,5.3-11.8,11.8s5.3,11.8,11.8,11.8h43.3c-4.6-1.9-7.8-6.5-7.8-11.8
			C407.1,112.8,410.4,108.3,414.9,106.4z"/>
		<path class="st14" d="M415.7,47.5c-6,15.2-12.6,39.9,10.5,55.4c22.3-3.8,34.3-30,20.7-49.6c-5.7-8.1-11-14.9-15.4-21.9
			C426,33.9,419.3,38.6,415.7,47.5z"/>
		<g>
			<path class="st15" d="M420.7,103.4h0.1c2.5,0,4.9-0.3,7.2-0.8c-22.6-15.5-16-40-10-55.1c3.2-8,8.9-12.6,14.1-15.2
				c-3.8-6-7-12.1-9.1-19.2c-0.7-2.4-4-2.4-4.7,0c-4.4,15.1-13.6,25.5-23.9,40.3C379.7,74.5,394.8,103.5,420.7,103.4L420.7,103.4
				L420.7,103.4z"/>
			<circle class="st15" cx="418.5" cy="57.6" r="8.1"/>
			<path class="st15" d="M418.3,68.8c0,3.9-3.2,7.1-7.1,7.1s-7.1-3.2-7.1-7.1s3.2-7.1,7.1-7.1C415.1,61.7,418.3,64.8,418.3,68.8z"/>
		</g>
	</g>
	<g class="st2">
		<path class="st11" d="M386.2,54l7-1C354.1,26.5,306.8,11,256,11s-98.1,15.5-137.2,42l6.8,1H386.2z"/>
		<path class="st11" d="M437.8,98H74.2L68,99c-35.6,42.5-57,97.3-57,157c0,57.5,19.8,110.4,53,152.2h196.7V313h231.6l2.2-1
			c4.2-18,6.4-36.7,6.4-56c0-59.7-21.4-114.5-56.9-157L437.8,98z"/>
		<g>
			<g>
				<path class="st23" d="M493,53H118.8c-19,12.9-36.2,28.4-50.9,46H493c2.8,0,5-2.2,5-5V58C498,55.2,495.8,53,493,53z"/>
			</g>
			<g>
				<g>
					<g>
						<path class="st24" d="M298.6,160h50.7v15.5h-50.7V160z"/>
					</g>
					<g>
						<path class="st25" d="M298.6,160H325v15.5h-26.4V160z"/>
					</g>
					<g>
						<path class="st26" d="M361,313v-42l-1-1h-24c-2.2,0-4-1.8-4-4v-55c0-2.2,1.8-4,4-4h24l1-1v-20c0-6.4-5.2-11.6-11.6-11.6h-50.9
							c-6.4,0-11.6,5.2-11.6,11.6v127H361z"/>
					</g>
					<g>
						<path class="st27" d="M361,206h-25c-2.8,0-5,2.2-5,5v55c0,2.8,2.2,5,5,5h25V206z"/>
					</g>
					<g>
						<path class="st23" d="M345,266v-55c0-2.8,2.2-5,5-5h-14c-2.8,0-5,2.2-5,5v55c0,2.8,2.2,5,5,5h14C347.2,271,345,268.8,345,266z
							"/>
					</g>
					<g>
						<path class="st24" d="M317,313V186c0-6.4,5.2-11.6,11.6-11.6h-30c-6.4,0-11.6,5.2-11.6,11.6v127H317z"/>
					</g>
					<g>
						<path class="st28" d="M351,161h-54c-5.5,0-10-4.5-10-10v-18.5c0-5.5,4.5-10,10-10h54c5.5,0,10,4.5,10,10V151
							C361,156.5,356.5,161,351,161z"/>
					</g>
					<g>
						<path class="st29" d="M317,147c-5.5,0-10-4.5-10-10v-14.6h-10c-5.5,0-10,4.5-10,10V151c0,5.5,4.5,10,10,10h54
							c5.5,0,10-4.5,10-10v-4H317z"/>
					</g>
				</g>
			</g>
			<g>
				<g>
					<g>
						<path class="st24" d="M389.6,160h50.7v15.5h-50.7V160z"/>
					</g>
					<g>
						<path class="st25" d="M389.6,160H416v15.5h-26.4V160z"/>
					</g>
					<g>
						<path class="st26" d="M452,313v-42l-1-1h-24c-2.2,0-4-1.8-4-4v-55c0-2.2,1.8-4,4-4h24l1-1v-20c0-6.4-5.2-11.6-11.6-11.6h-50.9
							c-6.4,0-11.6,5.2-11.6,11.6v127H452z"/>
					</g>
					<g>
						<path class="st27" d="M452,206h-25c-2.8,0-5,2.2-5,5v55c0,2.8,2.2,5,5,5h25V206z"/>
					</g>
					<g>
						<path class="st23" d="M436,266v-55c0-2.8,2.2-5,5-5h-14c-2.8,0-5,2.2-5,5v55c0,2.8,2.2,5,5,5h14C438.2,271,436,268.8,436,266z
							"/>
					</g>
					<g>
						<path class="st24" d="M408,313V186c0-6.4,5.2-11.6,11.6-11.6h-30c-6.4,0-11.6,5.2-11.6,11.6v127H408z"/>
					</g>
					<g>
						<path class="st28" d="M442,161h-54c-5.5,0-10-4.5-10-10v-18.5c0-5.5,4.5-10,10-10h54c5.5,0,10,4.5,10,10V151
							C452,156.5,447.5,161,442,161z"/>
					</g>
					<g>
						<path class="st29" d="M408,147c-5.5,0-10-4.5-10-10v-14.6h-10c-5.5,0-10,4.5-10,10V151c0,5.5,4.5,10,10,10h54
							c5.5,0,10-4.5,10-10v-4H408z"/>
					</g>
				</g>
			</g>
			<path class="st28" d="M259.7,312v97.2h183.6l4.7-1c22.1-27.8,38.2-60.5,46.5-96.2H259.7z"/>
			<path class="st29" d="M259.7,312H299v97.2h-39.3V312z"/>
			<g>
				<path class="st30" d="M71.7,217.9h189v191.3h-189L71.7,217.9L71.7,217.9z"/>
				<path class="st31" d="M97.2,391.5c-2.8,0-5-2.2-5-5v-91.3c0-2.8,2.2-5,5-5h18.3V250c0-2.8,2.2-5,5-5h3.5v-26H71.7v190.3H124
					v-17.7L97.2,391.5L97.2,391.5z"/>
				<path class="st26" d="M235.1,290.1h-19.3v62.7c0,2.2-1.8,4-4,4h-91.3c-2.2,0-4-1.8-4-4v-62.7H97.2c-2.8,0-5,2.2-5,5v91.3
					c0,2.8,2.2,5,5,5h137.9c2.8,0,5-2.2,5-5v-91.3C240.1,292.4,237.9,290.1,235.1,290.1L235.1,290.1z"/>
				<path class="st24" d="M145,386.5v-29.6h-24.5c-2.2,0-4-1.8-4-4v-62.7H97.2c-2.8,0-5,2.2-5,5v91.3c0,2.8,2.2,5,5,5H150
					C147.2,391.5,145,389.2,145,386.5z"/>
				<g>
					<path class="st27" d="M211.9,357.8h-91.3c-2.8,0-5-2.2-5-5V249.9c0-2.8,2.2-5,5-5h91.3c2.8,0,5,2.2,5,5v102.9
						C216.9,355.6,214.6,357.8,211.9,357.8z"/>
				</g>
				<g>
					<path class="st23" d="M146.7,352.8V249.9c0-2.8,2.2-5,5-5h-31.1c-2.8,0-5,2.2-5,5v102.9c0,2.8,2.2,5,5,5h31.1
						C148.9,357.8,146.7,355.6,146.7,352.8z"/>
				</g>
				<g>
					<path class="st32" d="M264.4,218.9H68c-5.5,0-10-4.5-10-10v-41.6c0-5.5,4.5-10,10-10h196.4c5.5,0,10,4.5,10,10v41.6
						C274.4,214.4,269.9,218.9,264.4,218.9z"/>
				</g>
				<g>
					<path class="st33" d="M120.6,198c-5.5,0-10-4.5-10-10v-30.7H68c-5.5,0-10,4.5-10,10v41.6c0,5.5,4.5,10,10,10h196.4
						c5.5,0,10-4.5,10-10V198H120.6z"/>
				</g>
			</g>
			<g>
				<path class="st34" d="M192.7,281.5h-53c-4.1,0-7.5-3.4-7.5-7.5s3.4-7.5,7.5-7.5h53c4.1,0,7.5,3.4,7.5,7.5
					S196.8,281.5,192.7,281.5z"/>
			</g>
			<g>
				<path class="st34" d="M192.7,305.5h-53c-4.1,0-7.5-3.4-7.5-7.5s3.4-7.5,7.5-7.5h53c4.1,0,7.5,3.4,7.5,7.5
					S196.8,305.5,192.7,305.5z"/>
			</g>
			<g>
				<path class="st34" d="M178.7,335.5h-25c-4.1,0-7.5-3.4-7.5-7.5s3.4-7.5,7.5-7.5h25c4.1,0,7.5,3.4,7.5,7.5
					S182.8,335.5,178.7,335.5z"/>
			</g>
			<g>
				<path class="st35" d="M64,408.2c44.9,56.5,114.2,92.8,192,92.8s147.1-36.3,192-92.8H64z"/>
			</g>
		</g>
		<g>
			<g>
				<path class="st23" d="M493,53H118.8c-19,12.9-36.2,28.4-50.9,46H493c2.8,0,5-2.2,5-5V58C498,55.2,495.8,53,493,53z"/>
			</g>
			<g>
				<path class="st36" d="M143,82c-2.8,0-5-2.2-5-5V53h-19.2c-19,12.9-36.2,28.4-50.9,46H493c2.8,0,5-2.2,5-5V82H143z"/>
			</g>
			<g>
				<path class="st26" d="M466,53v46h-42V53H466z"/>
			</g>
			<path class="st24" d="M424,82h42v17h-42V82z"/>
			<g>
				<path class="st37" d="M399,53v46h-42V53H399z"/>
			</g>
			<path class="st38" d="M357,82h42v17h-42V82z"/>
			<g>
				<path class="st32" d="M332,53v46h-42V53H332z"/>
			</g>
			<g>
				<g>
					<path class="st39" d="M265,53v46h-42V53H265z"/>
				</g>
				<path class="st40" d="M223,82h42v17h-42V82z"/>
				<g>
					<path class="st41" d="M198,53v46h-42V53H198z"/>
				</g>
				<path class="st42" d="M156,82h42v17h-42V82z"/>
			</g>
		</g>
		<path class="st33" d="M290,82h42v17h-42V82z"/>
	</g>
</g>
<circle class="st43" cx="256" cy="256" r="245"/>
<g>
	<path class="st27" d="M339.1,212.9v-28c-21.6-4.2-33.6-16.4-39.6-24.8c-10,12.6-29.7,21.7-54.4,24.7v28c0,25.9,21.1,47,47,47
		S339.1,238.9,339.1,212.9z"/>
	<path class="st27" d="M223,180.1c3.1-1.9,6.8-3,10.8-3c0.6,0,1.1,0.1,1.6,0.3c0.8-1.3,2.3-2.2,3.9-2.4
		c31.8-2.9,50.7-15.7,55.4-27.1c0.8-2,2.7-3.3,4.8-3.3h0c2.1,0,4,1.3,4.8,3.3c0.4,0.9,10,23.4,40.6,27.4c1.3,0.2,2.5,0.8,3.3,1.8
		h3.4c3.5,0,6.7,0.8,9.5,2.3c0.1-5.5,0.3-11.2,0.7-17.4c1-14.4-3.3-26.6-12.8-36.3c-16.1-16.5-42.8-21.5-56.8-20.9
		c-0.2,0-0.3,0-0.5,0c-14-0.7-40.7,4.4-56.8,20.9c-9.5,9.7-13.8,21.9-12.8,36.3C222.7,168.4,223,174.4,223,180.1z"/>
	<path class="st27" d="M361,195.7c0-4.5-4.2-8.2-9.4-8.2h-2.1v16.7c0.6-0.3,1.3-0.4,2.1-0.4C356.8,203.9,361,200.2,361,195.7z"/>
	<path class="st27" d="M317.6,321.8c0.1,0,0.3,0,0.4-0.1l5.6-33.4c-3.8-7.6-6.9-16.7-8.7-22.7c-7,3-14.7,4.7-22.8,4.7
		c-8.2,0-15.9-1.7-23-4.8c-1.7,5.3-4.6,13.3-8.4,20.6l5.7,34.1c0,0,0,0,0.1,0c8.2,3.1,17.8,4.7,27.7,4.7
		C302.4,325.1,310.5,323.9,317.6,321.8L317.6,321.8z"/>
	<path class="st27" d="M198.2,232.2l-4.3-16.1c-0.4-1.5-0.1-3.1,0.8-4.4c5-6.9,7.6-14.6,7.6-22.5c0-25.3-26.3-45.9-58.6-45.9
		S85,163.8,85,189.1s26.3,45.9,58.6,45.9c11.4,0,22.4-2.6,32-7.5c1.2-0.6,2.5-0.7,3.7-0.4L198.2,232.2z M119.3,192.3h-2.4
		c-2.9,0-5.2-2.3-5.2-5.2c0-2.9,2.3-5.2,5.2-5.2h2.4c2.9,0,5.2,2.3,5.2,5.2C124.5,189.9,122.1,192.3,119.3,192.3z M143.3,192.3h-2.4
		c-2.9,0-5.2-2.3-5.2-5.2c0-2.9,2.3-5.2,5.2-5.2h2.4c2.9,0,5.2,2.3,5.2,5.2C148.5,189.9,146.2,192.3,143.3,192.3z M167.3,192.3h-2.4
		c-2.9,0-5.2-2.3-5.2-5.2c0-2.9,2.3-5.2,5.2-5.2h2.4c2.9,0,5.2,2.3,5.2,5.2C172.5,189.9,170.2,192.3,167.3,192.3z"/>
	<path class="st27" d="M349.5,213.9c-0.3,19.4-10.2,36.4-25.2,46.6c1,3.4,2.7,8.8,4.8,14.3c0.9-0.2,1.8-0.2,2.6,0l26.7,7.5
		c0.2-0.1,0.3-0.2,0.5-0.3c14.4-5.7,13.2-12.9,12.8-15.3c-0.9-5.3-1.9-10.6-3.1-16.3c-2.3-11.7-4.8-24.2-6.3-39.2
		c-3.1,1.9-6.8,3-10.8,3C350.9,214.3,350.2,214.2,349.5,213.9z"/>
	<path class="st27" d="M240.8,338.2l25.7,45.3l-16.4-97.1l-23,6.5l19.8,26.3c1.2,1.6,1.4,3.7,0.5,5.5L240.8,338.2z"/>
	<path class="st27" d="M357.6,292.9l-23-6.5l-16.4,97.1l25.7-45.3l-6.7-13.5c-0.9-1.8-0.7-3.9,0.5-5.5L357.6,292.9z"/>
	<circle class="st27" cx="365.2" cy="372.4" r="10.1"/>
	<path class="st27" d="M224.5,195.7c0,4.5,4.2,8.2,9.4,8.2c0.3,0,0.5,0,0.8,0.1v-16.5c-0.3,0-0.5,0.1-0.8,0.1
		C228.7,187.6,224.5,191.2,224.5,195.7z"/>
	<path class="st27" d="M373.8,314.6c4.8,8.8,8,22.1,3.1,41c5.3,3.7,8.7,9.8,8.7,16.8c0,11.3-9.2,20.5-20.5,20.5s-20.5-9.2-20.5-20.5
		c0-11.3,9.2-20.5,20.5-20.5c0.6,0,1.3,0,1.9,0.1c5.8-24-4-36.2-8.8-40.5c-0.5,0-0.9-0.1-1.4-0.2L348,323l6.5,13.1
		c0.8,1.6,0.7,3.4-0.1,4.9l-37.8,66.6h35.8H427c-0.2-8.4-1.4-26.2-7.6-44.2C410.6,337.7,395.3,321.4,373.8,314.6L373.8,314.6z"/>
	<path class="st27" d="M225.9,282.4l27.1-7.6c0.5-0.1,1.1-0.2,1.6-0.2c2.3-5.5,4.1-10.8,5.2-14.2c-14.8-10.1-24.7-27-25.1-46.2
		c-0.3,0-0.5,0.1-0.8,0.1c-4.5,0-8.7-1.4-12-3.8c-1.5,15.3-4,28.1-6.3,40c-1.1,5.7-2.2,11-3.1,16.3c-0.4,2.4-1.6,9.6,12.8,15.3
		C225.5,282.2,225.7,282.3,225.9,282.4L225.9,282.4z"/>
	<path class="st27" d="M268.5,332l12.7,75.6h22.3l12.6-74.6c-6.9,1.7-14.2,2.5-21.8,2.5C285.3,335.5,276.5,334.3,268.5,332
		L268.5,332z"/>
	<path class="st27" d="M230.2,336.1l6.5-13.1l-7.3-9.8c-3.6,3-10.1,11-12.7,30.1c4.4,1.4,8.4,4,11.4,7.7c4.2,5.1,6.2,11.4,5.6,18
		l-2.3,24.8c-0.3,2.7-2.5,4.7-5.2,4.7c-0.2,0-0.3,0-0.5,0l-10.8-1c-2.9-0.3-5-2.8-4.7-5.7c0.3-2.9,2.8-5,5.7-4.7l5.6,0.5l1.8-19.6
		c0.4-3.8-0.8-7.4-3.2-10.3c-2.4-2.9-5.8-4.7-9.6-5.1c-3.8-0.4-7.4,0.8-10.3,3.2c-2.9,2.4-4.7,5.8-5.1,9.6l-1.8,19.6l6,0.6
		c2.9,0.3,5,2.8,4.7,5.7c-0.3,2.9-2.8,5-5.7,4.7l-11.2-1c-1.4-0.1-2.7-0.8-3.5-1.9c-0.9-1.1-1.3-2.4-1.2-3.8l2.3-24.8
		c0.6-6.5,3.7-12.5,8.8-16.6c3.7-3.1,8.1-4.9,12.8-5.5c1.8-13.9,5.6-23.2,9.5-29.3c-24.4,5.7-41.6,22.7-51.1,50.6
		c-6.1,17.9-7.3,35.6-7.5,43.9h87.1h23.9L230.4,341C229.5,339.5,229.5,337.6,230.2,336.1L230.2,336.1z"/>
</g>
</svg>
